#N canvas 287 240 680 417 12;
#X obj 129 42 nbx 3 14 0 1e+37 0 0 \$0-upbeat \$0-upbeat Upbeat 0 -8
0 12 -262144 -1 -1 0 256 0;
#X obj 256 361 nbx 5 14 1 1e+37 0 0 \$0-tempo \$0-tempo BPM 0 -8 0
12 -262144 -1 -1 120 256 0;
#X obj 245 41 nbx 5 14 1 192 0 0 \$0-division \$0-division Ticks/Pulse
0 -8 0 12 -262144 -1 -1 48 256 0;
#X obj 373 361 nbx 3 14 0 1e+37 0 0 \$0-metronome \$0-metronome Metronome
0 -8 0 12 -262144 -1 -1 0 256 0;
#X text 245 67 Step Mode;
#X obj 247 88 vradio 15 1 0 5 \$0-step-mode \$0-step-mode empty 0 -8
0 10 -262144 -1 -1 0;
#X text 269 87 Random;
#X text 269 103 Up;
#X text 269 118 Down;
#X text 269 133 Up-Down;
#X text 269 149 Down-Up;
#X text 239 200 Harmonicity;
#X obj 241 221 vradio 15 1 0 4 \$0-hrm \$0-hrm empty 0 -8 0 10 -262144
-1 -1 0;
#X text 263 220 Barlow;
#X obj 15 218 nbx 5 14 0 1 0 0 \$0-min-harm \$0-min-harm Min 0 -8 0
12 -262144 -1 -1 0.14 256 0;
#X obj 82 218 nbx 5 14 0 1 0 0 \$0-max-harm \$0-max-harm Max 0 -8 0
12 -262144 -1 -1 1 256 0;
#X obj 150 218 nbx 5 14 -1 1 0 0 \$0-harm-bias \$0-harm-bias Bias 0
-8 0 12 -262144 -1 -1 0 256 0;
#X obj 15 250 nbx 5 14 -1 1 0 0 \$0-pref \$0-pref Preference 0 -8 0
12 -262144 -1 -1 0 256 0;
#X obj 150 250 nbx 5 14 -1 1 0 0 \$0-pref-bias \$0-pref-bias Bias 0
-8 0 12 -262144 -1 -1 0 256 0;
#X obj 14 282 nbx 5 14 0 192 0 0 \$0-trace \$0-trace Trace 0 -8 0 12
-262144 -1 -1 0 256 0;
#X text 79 280 ticks;
#X obj 373 328 tgl 15 0 \$0-mute \$0-mute Mute 0 -8 0 12 -262144 -1
-1 0 1;
#X obj 419 328 tgl 15 0 \$0-hold \$0-hold Hold 0 -8 0 12 -262144 -1
-1 0 1;
#X text 447 25 Min;
#X obj 448 44 nbx 5 14 0 127 0 0 \$0-min-note \$0-min-note empty 0
-8 0 12 -262144 -1 -1 36 256 0;
#X obj 519 44 nbx 5 14 0 127 0 0 \$0-max-note \$0-max-note empty 0
-8 0 12 -262144 -1 -1 84 256 0;
#X text 518 25 Max;
#X text 588 25 Bias;
#X text 354 43 Notes;
#X obj 448 65 nbx 5 14 0 127 0 0 \$0-min-vel \$0-min-vel empty 0 -8
0 12 -262144 -1 -1 80 256 0;
#X obj 519 65 nbx 5 14 0 127 0 0 \$0-max-vel \$0-max-vel empty 0 -8
0 12 -262144 -1 -1 120 256 0;
#X obj 589 65 nbx 5 14 -1 1 0 0 \$0-vel-bias \$0-vel-bias empty 0 -8
0 12 -262144 -1 -1 1 256 0;
#X obj 448 87 nbx 5 14 0 192 0 0 \$0-min-dur \$0-min-dur empty 0 -8
0 12 -262144 -1 -1 24 256 0;
#X obj 519 87 nbx 5 14 0 192 0 0 \$0-max-dur \$0-max-dur empty 0 -8
0 12 -262144 -1 -1 48 256 0;
#X obj 589 87 nbx 5 14 -1 1 0 0 \$0-dur-bias \$0-dur-bias empty 0 -8
0 12 -262144 -1 -1 0 256 0;
#X obj 448 111 nbx 5 14 -96 96 0 0 \$0-min-shift \$0-min-shift empty
0 -8 0 12 -262144 -1 -1 0 256 0;
#X obj 519 111 nbx 5 14 -96 96 0 0 \$0-max-shift \$0-max-shift empty
0 -8 0 12 -262144 -1 -1 0 256 0;
#X obj 589 111 nbx 5 14 -1 1 0 0 \$0-shift-bias \$0-shift-bias empty
0 -8 0 12 -262144 -1 -1 0 256 0;
#X obj 448 134 nbx 5 14 -127 127 0 0 \$0-min-step \$0-min-step empty
0 -8 0 12 -262144 -1 -1 0 256 0;
#X obj 519 134 nbx 5 14 -127 127 0 0 \$0-max-step \$0-max-step empty
0 -8 0 12 -262144 -1 -1 127 256 0;
#X obj 589 134 nbx 5 14 -1 1 0 0 \$0-step-bias \$0-step-bias empty
0 -8 0 12 -262144 -1 -1 0 256 0;
#X obj 448 157 nbx 5 14 0 1 0 0 \$0-min-prob \$0-min-prob empty 0 -8
0 12 -262144 -1 -1 0 256 0;
#X obj 519 157 nbx 5 14 0 1 0 0 \$0-max-prob \$0-max-prob empty 0 -8
0 12 -262144 -1 -1 1 256 0;
#X obj 589 157 nbx 5 14 -1 1 0 0 \$0-prob-bias \$0-prob-bias empty
0 -8 0 12 -262144 -1 -1 1 256 0;
#X obj 448 181 nbx 5 14 0 100 0 0 \$0-max-notes \$0-max-notes empty
0 -8 0 12 -262144 -1 -1 5 256 0;
#X obj 589 181 nbx 5 14 -1 1 0 0 \$0-max-notes-bias \$0-max-notes-bias
empty 0 -8 0 12 -262144 -1 -1 0 256 0;
#X text 354 64 Velocity;
#X text 354 86 Duration;
#X text 354 110 Pulse Shift;
#X text 354 133 Step Width;
#X text 354 156 Probability;
#X text 354 180 Density;
#X symbolatom 256 328 14 0 0 2 Meter #0-meter-r #0-meter;
#X symbolatom 14 42 14 0 0 0 - #0-pulses-r #0-pulses;
#X text 13 27 Pulse Filter;
#X text 354 204 Duration Quantizer;
#X obj 355 227 vradio 15 1 0 2 \$0-quant-mode \$0-quant-mode empty
0 -8 0 10 -262144 -1 -1 0;
#X text 380 228 Delta;
#X text 380 244 Values;
#X symbolatom 449 245 14 0 0 0 - #0-dur-vals-r #0-dur-vals;
#X obj 449 227 nbx 5 14 1 192 0 0 \$0-delta \$0-delta empty 0 -8 0
12 -262144 -1 -1 24 256 0;
#X symbolatom 450 277 14 0 0 2 - #0-scale-r #0-scale;
#X obj 517 202 tgl 15 0 \$0-limit \$0-limit Limit 17 7 0 12 -262144
-1 -1 0 1;
#X obj 589 202 tgl 15 0 \$0-unique \$0-unique Unique 17 7 0 12 -262144
-1 -1 0 1;
#X text 490 6 - Notes -;
#X text 119 178 - Harmony -;
#X obj 449 331 cnv 15 100 30 empty empty Raptor5 20 12 1 14 -262144
-1 0;
#X obj 274 389 bng 15 250 50 0 \$0-start \$0-start Start 17 7 0 12
-225271 -1 -1;
#X obj 332 389 bng 15 250 50 0 \$0-stop \$0-stop Stop 17 7 0 12 -261689
-1 -1;
#X symbolatom 4 389 14 0 0 0 - #0-preset-r #0-preset;
#X obj 110 389 bng 15 250 50 0 \$0-load \$0-load Load 17 7 0 12 -262144
-1 -1;
#X obj 4 361 nbx 3 14 -1 16 0 0 \$0-in-chan \$0-in-chan In 0 -8 0 12
-262144 -1 -1 -1 256 0;
#X obj 51 361 nbx 3 14 -1 16 0 0 \$0-out-chan \$0-out-chan Out 0 -8
0 12 -262144 -1 -1 1 256 0;
#X obj 420 360 bng 15 50 50 0 \$0-blink \$0-blink empty 17 7 0 12 -262144
-1 -1;
#X text 16 67 Pitch Tracker;
#X obj 17 86 vradio 15 1 0 4 \$0-pitch-tracker \$0-pitch-tracker empty
0 -8 0 10 -262144 -1 -1 0;
#X obj 127 90 vradio 15 1 0 2 \$0-vel-tracker \$0-vel-tracker empty
0 -8 0 10 -262144 -1 -1 0;
#X text 149 89 Off;
#X text 149 105 On;
#X text 39 85 Off;
#X text 39 101 On;
#X text 39 131 Bass;
#X text 39 116 Treble;
#X obj 354 278 nbx 5 14 0 127 0 0 \$0-base \$0-base Key 0 -8 0 12 -262144
-1 -1 0 256 0;
#X text 125 67 Velocity Tracker;
#X obj 17 152 nbx 3 14 -127 127 0 0 \$0-arg1 \$0-arg1 empty 0 -8 0
12 -262144 -1 -1 0 256 0;
#X obj 66 152 nbx 3 14 -127 127 0 0 \$0-arg2 \$0-arg2 empty 0 -8 0
12 -262144 -1 -1 0 256 0;
#X obj 125 152 nbx 3 14 -127 127 0 0 \$0-arg3 \$0-arg3 empty 0 -8 0
12 -262144 -1 -1 0 256 0;
#X obj 174 152 nbx 3 14 -127 127 0 0 \$0-arg4 \$0-arg4 empty 0 -8 0
12 -262144 -1 -1 0 256 0;
#X text 124 133 Min;
#X text 171 133 Max Offset;
#X obj 470 302 bng 15 250 50 1 \$0-defaults \$0-defaults Defaults 17
7 0 12 -262144 -1 -1;
#X obj 162 389 bng 15 250 50 0 \$0-save \$0-save Save 17 7 0 12 -262144
-1 -1;
#X obj 52 328 nbx 3 14 -1 128 0 0 \$0-ctl1 \$0-ctl1 Prog 0 -8 0 12
-262144 -1 -1 -1 256 0;
#X obj 99 328 nbx 3 14 -1 127 0 0 \$0-ctl2 \$0-ctl2 Vol 0 -8 0 12 -262144
-1 -1 -1 256 0;
#X obj 99 361 nbx 3 14 -1 127 0 0 \$0-ctl3 \$0-ctl3 Pan 0 -8 0 12 -262144
-1 -1 -1 256 0;
#X obj 147 328 nbx 3 14 -1 127 0 0 \$0-ctl4 \$0-ctl4 Reverb 0 -8 0
12 -262144 -1 -1 -1 256 0;
#X obj 147 361 nbx 3 14 -1 127 0 0 \$0-ctl5 \$0-ctl5 Chorus 0 -8 0
12 -262144 -1 -1 -1 256 0;
#X obj 201 328 nbx 3 14 -1 127 0 0 \$0-ctl6 \$0-ctl6 Attack 0 -8 0
12 -262144 -1 -1 -1 256 0;
#X obj 201 361 nbx 3 14 -1 127 0 0 \$0-ctl7 \$0-ctl7 Filter 0 -8 0
12 -262144 -1 -1 -1 256 0;
#X obj 385 389 bng 15 250 50 0 \$0-reset \$0-reset Reset 17 7 0 12
-262131 -1 -1;
#X obj 322 361 nbx 3 14 1 1e+37 0 0 \$0-timebase \$0-timebase Beats
0 -8 0 12 -262144 -1 -1 4 256 0;
#X text 174 41 pulses;
#X text 126 5 - Sequencer -;
#X text 262 251 Euler;
#X text 262 267 Euler/2;
#X text 263 235 Barlow/2;
#X obj 212 389 bng 15 250 50 0 \$0-save-as \$0-save-as SaveAs 17 7
0 12 -262144 -1 -1;
#N canvas 742 123 451 343 meters 0;
#X text 158 15 Meter presets;
#X msg 12 79 2;
#X msg 12 106 2-2;
#X msg 12 133 2-2-2;
#X msg 12 159 2-2-2-2;
#X msg 90 80 3;
#X text 11 52 2-based;
#X msg 90 105 2-3;
#X msg 90 131 3-2;
#X msg 136 80 3-2-2;
#X msg 136 106 2-3-2;
#X msg 136 132 2-2-3;
#X msg 136 157 3-3-2;
#X msg 136 182 3-2-3;
#X msg 136 207 2-3-3;
#X msg 212 79 5;
#X msg 212 104 2-5;
#X msg 212 130 5-2;
#X msg 258 79 5-2-2;
#X msg 258 105 2-5-2;
#X msg 258 131 2-2-5;
#X msg 258 156 5-5-2;
#X msg 258 181 5-2-5;
#X msg 258 206 2-5-5;
#X msg 330 79 7;
#X msg 330 104 2-7;
#X msg 330 130 7-2;
#X msg 376 79 7-2-2;
#X msg 376 105 2-7-2;
#X msg 376 131 2-2-7;
#X msg 376 156 7-7-2;
#X msg 376 181 7-2-7;
#X msg 376 206 2-7-7;
#X text 88 52 3-based;
#X text 210 51 5-based;
#X text 329 49 7-based;
#X obj 90 245 s \$0-x;
#X obj 136 245 s \$0-x;
#X obj 212 245 s \$0-x;
#X obj 258 245 s \$0-x;
#X obj 330 244 s \$0-x;
#X obj 376 244 s \$0-x;
#X obj 12 271 r \$0-x;
#X obj 12 321 s \$0-meter-r;
#N canvas 232 150 450 300 symbol 0;
#X obj 29 12 inlet;
#X obj 86 110 symbol;
#X obj 86 140 outlet;
#X obj 86 74 makefilename %d;
#X obj 29 41 route empty float;
#X obj 29 74 symbol;
#X connect 0 0 4 0;
#X connect 1 0 2 0;
#X connect 3 0 1 0;
#X connect 4 0 5 0;
#X connect 4 1 3 0;
#X connect 4 2 1 0;
#X connect 5 0 2 0;
#X restore 12 298 pd symbol;
#X obj 12 244 s \$0-x;
#X connect 1 0 45 0;
#X connect 2 0 45 0;
#X connect 3 0 45 0;
#X connect 4 0 45 0;
#X connect 5 0 36 0;
#X connect 7 0 36 0;
#X connect 8 0 36 0;
#X connect 9 0 37 0;
#X connect 10 0 37 0;
#X connect 11 0 37 0;
#X connect 12 0 37 0;
#X connect 13 0 37 0;
#X connect 14 0 37 0;
#X connect 15 0 38 0;
#X connect 16 0 38 0;
#X connect 17 0 38 0;
#X connect 18 0 39 0;
#X connect 19 0 39 0;
#X connect 20 0 39 0;
#X connect 21 0 39 0;
#X connect 22 0 39 0;
#X connect 23 0 39 0;
#X connect 24 0 40 0;
#X connect 25 0 40 0;
#X connect 26 0 40 0;
#X connect 27 0 41 0;
#X connect 28 0 41 0;
#X connect 29 0 41 0;
#X connect 30 0 41 0;
#X connect 31 0 41 0;
#X connect 32 0 41 0;
#X connect 42 0 44 0;
#X connect 44 0 43 0;
#X restore 454 390 pd meters;
#N canvas 683 18 380 284 scales 0;
#X msg 63 77 1-3-6-8-10/12;
#X msg 63 104 1-4-6-9-11/12;
#X msg 63 134 1-4-6-9-10/12;
#X msg 63 164 1-4-6-8-10/12;
#X text 196 52 12-tone;
#X text 196 80 major;
#X text 196 105 natural minor;
#X text 197 136 harmonic minor;
#X text 197 164 melodic minor;
#X msg 63 192 1/2;
#X text 197 191 whole tone;
#X text 158 15 Scale filter presets;
#X msg 63 54 empty;
#X obj 63 250 s \$0-scale-r;
#N canvas 232 150 450 300 symbol 0;
#X obj 29 12 inlet;
#X obj 86 110 symbol;
#X obj 86 140 outlet;
#X obj 86 74 makefilename %d;
#X obj 29 41 route empty float;
#X obj 29 74 symbol;
#X connect 0 0 4 0;
#X connect 1 0 2 0;
#X connect 3 0 1 0;
#X connect 4 0 5 0;
#X connect 4 1 3 0;
#X connect 4 2 1 0;
#X connect 5 0 2 0;
#X restore 63 227 pd symbol;
#X connect 0 0 14 0;
#X connect 1 0 14 0;
#X connect 2 0 14 0;
#X connect 3 0 14 0;
#X connect 9 0 14 0;
#X connect 12 0 14 0;
#X connect 14 0 13 0;
#X restore 594 390 pd scales;
#X text 449 261 Scale Filter;
#N canvas 683 18 451 338 pulses 0;
#X text 114 18 Pulse filter presets;
#X msg 53 79 1/2;
#X msg 53 105 0/2;
#X text 133 81 upbeats only (2-based meter);
#X text 132 105 downbeats only (2-based meter);
#X msg 53 132 1/3;
#X text 132 132 shuffle #1 (...-3 meter);
#X msg 53 158 2-3/6;
#X text 132 158 shuffle #2 (...-3-2 meter);
#X text 132 185 shuffle #3 (...-3-2-2 meter);
#X msg 53 185 4-5-6-7/6;
#X msg 53 210 1-3/5;
#X text 134 212 5-based shuffle;
#X text 134 240 7-based shuffle;
#X msg 53 238 1-3-5/7;
#X msg 53 55 empty;
#X text 133 55 all pulses;
#X obj 53 296 s \$0-pulses-r;
#N canvas 232 150 450 300 symbol 0;
#X obj 29 12 inlet;
#X obj 86 110 symbol;
#X obj 86 140 outlet;
#X obj 86 74 makefilename %d;
#X obj 29 41 route empty float;
#X obj 29 74 symbol;
#X connect 0 0 4 0;
#X connect 1 0 2 0;
#X connect 3 0 1 0;
#X connect 4 0 5 0;
#X connect 4 1 3 0;
#X connect 4 2 1 0;
#X connect 5 0 2 0;
#X restore 53 273 pd symbol;
#X connect 1 0 18 0;
#X connect 2 0 18 0;
#X connect 5 0 18 0;
#X connect 7 0 18 0;
#X connect 10 0 18 0;
#X connect 11 0 18 0;
#X connect 14 0 18 0;
#X connect 15 0 18 0;
#X connect 18 0 17 0;
#X restore 524 390 pd pulses;
#N canvas 232 28 450 816 defaults 0;
#X obj 11 38 f \$0;
#X obj 11 12 r \$0-defaults;
#X text 59 36 Control init;
#X msg 11 61 \; \$1-meter-r symbol 2-2 \; \$1-pulses-r symbol \; \$1-scale-r
symbol \; \$1-dur-vals-r symbol \; \$1-preset-r symbol \; \$1-base
0 \; \$1-tempo 120 \; \$1-timebase 4 \; \$1-division 48 \; \$1-upbeat
0 \; \$1-metronome 0 \; \$1-ticks 1 \; \$1-step-mode 0 \; \$1-min-note
36 \; \$1-max-note 84 \; \$1-min-vel 80 \; \$1-max-vel 120 \; \$1-vel-bias
1 \; \$1-min-dur 24 \; \$1-max-dur 48 \; \$1-dur-bias 0 \; \$1-min-shift
0 \; \$1-max-shift 0 \; \$1-shift-bias 0 \; \$1-min-step 0 \; \$1-max-step
127 \; \$1-step-bias 0 \; \$1-min-prob 0 \; \$1-max-prob 1 \; \$1-prob-bias
1 \; \$1-max-notes 5 \; \$1-max-notes-bias 0 \; \$1-limit 0 \; \$1-unique
0 \; \$1-quant-mode 0 \; \$1-delta 24 \; \$1-hrm 0 \; \$1-min-harm
0.14 \; \$1-max-harm 1 \; \$1-harm-bias 0 \; \$1-pref 0 \; \$1-pref-bias
0 \; \$1-trace 0 \; \$1-mute 0 \; \$1-hold 0 \; \$1-ostinato 0 \; \$1-period
0 \; \$1-pitch-tracker 0 \; \$1-vel-tracker 0 \; \$1-arg1 0 \; \$1-arg2
0 \; \$1-arg3 0 \; \$1-arg4 0 \; \$1-in-chan -1 \; \$1-out-chan 1 \;
\$1-ctl1 -1 \; \$1-ctl2 -1 \; \$1-ctl3 -1 \; \$1-ctl4 -1 \; \$1-ctl5
-1 \; \$1-ctl6 -1 \; \$1-ctl7 -1;
#X connect 0 0 3 0;
#X connect 1 0 0 0;
#X restore 313 447 pd defaults;
#N canvas 335 78 450 715 control-input 0;
#X obj 24 42 r \$0-msg-r;
#X obj 102 111 s \$0-preset-r;
#X obj 102 89 symbol;
#X obj 24 416 symbol;
#X obj 81 369 symbol;
#X obj 138 417 symbol;
#X obj 24 438 s \$0-meter-r;
#X obj 81 391 s \$0-pulses-r;
#X obj 138 439 s \$0-scale-r;
#X obj 195 369 symbol;
#X obj 195 391 s \$0-dur-vals-r;
#X obj 25 560 unpack s f;
#X obj 25 641 list;
#X obj 25 590 list trim;
#X obj 25 615 mksym \$0;
#X msg 25 676 \; \$1 \$2;
#X obj 24 345 route meter pulses scale dur_vals;
#X obj 24 89 pack f f;
#X obj 24 112 s \$0-note;
#X obj 24 19 inlet;
#X text 84 17 Control input;
#X obj 25 490 s \$0-start;
#X obj 71 514 s \$0-stop;
#X obj 118 542 s \$0-reset;
#X obj 220 608 makenote 127 200;
#X msg 220 583 37;
#X obj 220 556 t b f;
#X obj 220 633 noteout 10;
#X msg 24 252 load_preset \$1;
#X obj 24 274 s \$0-msg;
#X obj 124 322 s \$0-msg;
#X msg 124 300 save_preset \$1;
#X obj 24 230 symbol;
#X obj 124 278 symbol;
#X obj 24 206 route load_preset save_preset;
#X obj 180 133 symbol;
#X obj 180 181 s \$0-preset-file;
#X msg 180 156 set \$1;
#X obj 230 133 print preset;
#X text 16 659 Other messages simply set the correponding GUI controls.
;
#X obj 226 90 s \$0-msg;
#X obj 24 63 route note preset_name preset_file list;
#X obj 220 523 spigot;
#X obj 259 498 tgl 15 0 empty \$0-ticks empty 17 7 0 10 -262144 -1
-1 1 1;
#X obj 25 464 route start stop reset tick ticks;
#X connect 0 0 41 0;
#X connect 2 0 1 0;
#X connect 3 0 6 0;
#X connect 4 0 7 0;
#X connect 5 0 8 0;
#X connect 9 0 10 0;
#X connect 11 0 13 0;
#X connect 11 1 12 1;
#X connect 12 0 15 0;
#X connect 13 0 14 0;
#X connect 14 0 12 0;
#X connect 16 0 3 0;
#X connect 16 1 4 0;
#X connect 16 2 5 0;
#X connect 16 3 9 0;
#X connect 16 4 44 0;
#X connect 17 0 18 0;
#X connect 19 0 41 0;
#X connect 24 0 27 0;
#X connect 24 1 27 1;
#X connect 25 0 24 0;
#X connect 26 0 25 0;
#X connect 26 1 24 1;
#X connect 28 0 29 0;
#X connect 31 0 30 0;
#X connect 32 0 28 0;
#X connect 33 0 31 0;
#X connect 34 0 32 0;
#X connect 34 1 33 0;
#X connect 34 2 16 0;
#X connect 35 0 37 0;
#X connect 37 0 36 0;
#X connect 41 0 17 0;
#X connect 41 1 2 0;
#X connect 41 2 35 0;
#X connect 41 2 38 0;
#X connect 41 3 40 0;
#X connect 41 4 34 0;
#X connect 42 0 26 0;
#X connect 43 0 42 1;
#X connect 44 0 21 0;
#X connect 44 1 22 0;
#X connect 44 2 23 0;
#X connect 44 3 42 0;
#X connect 44 4 43 0;
#X connect 44 5 11 0;
#X restore 180 447 pd control-input;
#X obj 180 421 inlet;
#N canvas 236 130 475 233 presets 0;
#X obj 7 36 r \$0-load;
#X obj 7 81 s \$0-msg;
#X obj 7 155 s \$0-msg;
#X text 6 17 Load/save preset buttons;
#N canvas 370 310 450 300 load-preset 0;
#X obj 12 24 openpanel;
#X msg 12 71 load_preset \$1;
#X obj 12 1 inlet;
#X obj 12 93 outlet;
#X connect 0 0 1 0;
#X connect 1 0 3 0;
#X connect 2 0 0 0;
#X restore 7 58 pd load-preset;
#X symbolatom 154 111 20 0 0 0 - #0-preset-file -;
#X obj 7 105 r \$0-save-as;
#X obj 154 38 r \$0-save;
#X obj 154 61 s \$0-preset-file;
#X obj 154 159 s \$0-msg;
#N canvas 136 181 450 300 save-preset 0;
#X obj 9 103 savepanel;
#X msg 9 150 save_preset \$1;
#X obj 9 16 inlet;
#X obj 9 171 outlet;
#X obj 9 65 sel symbol;
#X obj 76 16 loadbang;
#X msg 76 40 symbol;
#X connect 0 0 1 0;
#X connect 1 0 3 0;
#X connect 2 0 4 0;
#X connect 4 0 0 0;
#X connect 4 1 1 0;
#X connect 5 0 6 0;
#X connect 6 0 4 1;
#X restore 154 133 pd save-preset;
#N canvas 0 0 450 300 save-as-preset 0;
#X obj 9 41 savepanel;
#X msg 9 88 save_preset \$1;
#X obj 9 16 inlet;
#X obj 9 109 outlet;
#X connect 0 0 1 0;
#X connect 1 0 3 0;
#X connect 2 0 0 0;
#X restore 7 130 pd save-as-preset;
#X obj 343 61 symbol;
#X obj 343 40 r \$0-defaults;
#X obj 343 106 s \$0-preset-file;
#X msg 343 83 set \$1;
#X connect 0 0 4 0;
#X connect 4 0 1 0;
#X connect 5 0 10 0;
#X connect 6 0 11 0;
#X connect 7 0 8 0;
#X connect 10 0 9 0;
#X connect 11 0 2 0;
#X connect 12 0 15 0;
#X connect 13 0 12 0;
#X connect 15 0 14 0;
#X restore 313 474 pd presets;
#N canvas 196 0 831 685 gui-controls 0;
#X obj 284 12 r \$0-meter;
#X obj 489 10 r \$0-tempo;
#X msg 284 55 meter \$1;
#X obj 17 14 r \$0-pulses;
#X msg 17 57 pulses \$1;
#X obj 17 80 r \$0-scale;
#X msg 17 123 scale \$1;
#X obj 17 145 r \$0-dur-vals;
#X msg 489 32 tempo \$1;
#X obj 17 220 r \$0-base;
#X msg 17 242 base \$1;
#X obj 17 267 r \$0-division;
#X msg 17 289 division \$1;
#X obj 17 312 r \$0-upbeat;
#X msg 17 334 upbeat \$1;
#X obj 17 359 r \$0-metronome;
#X msg 17 381 metronome \$1;
#X obj 17 406 r \$0-step-mode;
#X msg 17 428 step_mode \$1;
#X msg 17 188 dur_vals \$1;
#X obj 167 283 r \$0-min-note;
#X msg 167 305 min_note \$1;
#X obj 167 329 r \$0-max-note;
#X msg 167 351 max_note \$1;
#X obj 280 283 r \$0-min-vel;
#X msg 280 305 min_vel \$1;
#X obj 280 328 r \$0-max-vel;
#X msg 280 350 max_vel \$1;
#X obj 280 373 r \$0-vel-bias;
#X msg 280 395 vel_bias \$1;
#X obj 383 283 r \$0-min-dur;
#X msg 383 305 min_dur \$1;
#X obj 383 329 r \$0-max-dur;
#X obj 383 374 r \$0-dur-bias;
#X msg 383 396 dur_bias \$1;
#X obj 483 283 r \$0-min-shift;
#X msg 483 305 min_shift \$1;
#X obj 483 329 r \$0-max-shift;
#X msg 483 351 max_shift \$1;
#X obj 483 374 r \$0-shift-bias;
#X msg 483 396 shift_bias \$1;
#X obj 597 282 r \$0-min-step;
#X msg 597 304 min_step \$1;
#X obj 597 328 r \$0-max-step;
#X msg 597 350 max_step \$1;
#X obj 597 373 r \$0-step-bias;
#X msg 597 395 step_bias \$1;
#X obj 701 283 r \$0-min-prob;
#X msg 701 305 min_prob \$1;
#X obj 701 329 r \$0-max-prob;
#X msg 701 351 max_prob \$1;
#X obj 701 374 r \$0-prob-bias;
#X msg 701 396 prob_bias \$1;
#X obj 167 423 r \$0-max-notes;
#X msg 167 445 max_notes \$1;
#X obj 167 468 r \$0-max-notes-bias;
#X msg 167 490 max_notes_bias \$1;
#X obj 383 424 r \$0-limit;
#X msg 383 446 limit \$1;
#X obj 383 469 r \$0-unique;
#X msg 383 491 unique \$1;
#X obj 167 523 r \$0-min-harm;
#X msg 167 545 min_harm \$1;
#X obj 167 569 r \$0-max-harm;
#X msg 167 591 max_harm \$1;
#X obj 167 614 r \$0-harm-bias;
#X msg 167 636 harm_bias \$1;
#X obj 17 458 r \$0-hrm;
#X msg 17 480 hrm \$1;
#X obj 280 523 r \$0-pref;
#X msg 280 545 pref \$1;
#X obj 280 569 r \$0-pref-bias;
#X msg 280 591 pref_bias \$1;
#X obj 280 615 r \$0-trace;
#X msg 280 637 trace \$1;
#X obj 17 502 r \$0-pitch-tracker;
#X msg 17 524 pitch_tracker \$1;
#X obj 17 547 r \$0-vel-tracker;
#X msg 17 569 vel_tracker \$1;
#X obj 167 670 r \$0-arg1;
#X msg 167 692 arg1 \$1;
#X obj 280 670 r \$0-arg2;
#X msg 280 692 arg2 \$1;
#X obj 167 717 r \$0-arg3;
#X msg 167 739 arg3 \$1;
#X obj 280 718 r \$0-arg4;
#X msg 280 740 arg4 \$1;
#X obj 167 206 r \$0-delta;
#X msg 167 228 delta \$1;
#X obj 280 206 r \$0-quant-mode;
#X msg 280 228 quant_mode \$1;
#X obj 17 597 r \$0-mute;
#X msg 17 619 mute \$1;
#X obj 17 644 r \$0-hold;
#X msg 17 666 hold \$1;
#X obj 17 691 r \$0-ostinato;
#X msg 17 713 ostinato \$1;
#X obj 167 795 r \$0-period;
#X msg 167 817 period \$1;
#X obj 17 847 s \$0-msg;
#X obj 167 846 s \$0-msg;
#X obj 280 848 s \$0-msg;
#X obj 383 522 s \$0-msg;
#X msg 383 351 max_dur \$1;
#X obj 483 429 s \$0-msg;
#X obj 597 428 s \$0-msg;
#X obj 701 429 s \$0-msg;
#X obj 383 671 r \$0-in-chan;
#X msg 383 693 in_chan \$1;
#X obj 383 718 r \$0-out-chan;
#X msg 383 740 out_chan \$1;
#X obj 496 672 r \$0-ctl1;
#X msg 496 694 ctl1 \$1;
#X obj 496 715 r \$0-ctl2;
#X msg 496 737 ctl2 \$1;
#X obj 496 760 r \$0-ctl3;
#X msg 496 782 ctl3 \$1;
#X obj 577 672 r \$0-ctl4;
#X msg 577 694 ctl4 \$1;
#X obj 577 715 r \$0-ctl5;
#X msg 577 737 ctl5 \$1;
#X obj 577 760 r \$0-ctl6;
#X msg 577 782 ctl6 \$1;
#X obj 577 803 r \$0-ctl7;
#X msg 577 825 ctl7 \$1;
#X obj 383 849 s \$0-msg;
#X obj 496 849 s \$0-msg;
#X obj 577 848 s \$0-msg;
#X text 132 12 GUI controls;
#X obj 489 54 r \$0-timebase;
#X msg 489 76 timebase \$1;
#X obj 284 119 s \$0-time-msg;
#X obj 489 119 s \$0-time-msg;
#X connect 0 0 2 0;
#X connect 1 0 8 0;
#X connect 2 0 131 0;
#X connect 3 0 4 0;
#X connect 4 0 99 0;
#X connect 5 0 6 0;
#X connect 6 0 99 0;
#X connect 7 0 19 0;
#X connect 8 0 132 0;
#X connect 9 0 10 0;
#X connect 10 0 99 0;
#X connect 11 0 12 0;
#X connect 12 0 99 0;
#X connect 13 0 14 0;
#X connect 14 0 99 0;
#X connect 15 0 16 0;
#X connect 16 0 99 0;
#X connect 17 0 18 0;
#X connect 18 0 99 0;
#X connect 19 0 99 0;
#X connect 20 0 21 0;
#X connect 21 0 100 0;
#X connect 22 0 23 0;
#X connect 23 0 100 0;
#X connect 24 0 25 0;
#X connect 25 0 101 0;
#X connect 26 0 27 0;
#X connect 28 0 29 0;
#X connect 29 0 101 0;
#X connect 30 0 31 0;
#X connect 31 0 102 0;
#X connect 32 0 103 0;
#X connect 33 0 34 0;
#X connect 34 0 102 0;
#X connect 35 0 36 0;
#X connect 36 0 104 0;
#X connect 37 0 38 0;
#X connect 38 0 104 0;
#X connect 39 0 40 0;
#X connect 40 0 104 0;
#X connect 41 0 42 0;
#X connect 42 0 105 0;
#X connect 43 0 44 0;
#X connect 44 0 105 0;
#X connect 45 0 46 0;
#X connect 46 0 105 0;
#X connect 47 0 48 0;
#X connect 48 0 106 0;
#X connect 49 0 50 0;
#X connect 50 0 106 0;
#X connect 51 0 52 0;
#X connect 52 0 106 0;
#X connect 53 0 54 0;
#X connect 54 0 100 0;
#X connect 55 0 56 0;
#X connect 56 0 100 0;
#X connect 57 0 58 0;
#X connect 58 0 102 0;
#X connect 59 0 60 0;
#X connect 60 0 102 0;
#X connect 61 0 62 0;
#X connect 62 0 100 0;
#X connect 63 0 64 0;
#X connect 64 0 100 0;
#X connect 65 0 66 0;
#X connect 66 0 100 0;
#X connect 67 0 68 0;
#X connect 68 0 99 0;
#X connect 69 0 70 0;
#X connect 70 0 101 0;
#X connect 71 0 72 0;
#X connect 72 0 101 0;
#X connect 73 0 74 0;
#X connect 74 0 101 0;
#X connect 75 0 76 0;
#X connect 76 0 99 0;
#X connect 77 0 78 0;
#X connect 78 0 99 0;
#X connect 79 0 80 0;
#X connect 80 0 100 0;
#X connect 81 0 82 0;
#X connect 82 0 101 0;
#X connect 83 0 84 0;
#X connect 84 0 100 0;
#X connect 85 0 86 0;
#X connect 86 0 101 0;
#X connect 87 0 88 0;
#X connect 88 0 100 0;
#X connect 89 0 90 0;
#X connect 90 0 101 0;
#X connect 91 0 92 0;
#X connect 92 0 99 0;
#X connect 93 0 94 0;
#X connect 94 0 99 0;
#X connect 95 0 96 0;
#X connect 96 0 99 0;
#X connect 97 0 98 0;
#X connect 98 0 100 0;
#X connect 103 0 102 0;
#X connect 107 0 108 0;
#X connect 108 0 125 0;
#X connect 109 0 110 0;
#X connect 110 0 125 0;
#X connect 111 0 112 0;
#X connect 112 0 126 0;
#X connect 113 0 114 0;
#X connect 114 0 126 0;
#X connect 115 0 116 0;
#X connect 116 0 126 0;
#X connect 117 0 118 0;
#X connect 118 0 127 0;
#X connect 119 0 120 0;
#X connect 120 0 127 0;
#X connect 121 0 122 0;
#X connect 122 0 127 0;
#X connect 123 0 124 0;
#X connect 124 0 127 0;
#X connect 129 0 130 0;
#X connect 130 0 132 0;
#X restore 407 448 pd gui-controls;
#N canvas 330 294 450 300 note-input 0;
#X obj 15 38 r \$0-pulse;
#X obj 48 61 r \$0-in-chan;
#X text 13 15 Note input;
#X obj 80 82 r \$0-note;
#N canvas 562 222 561 429 midi-in 0;
#X obj 75 34 notein;
#X obj 27 193 timer;
#X obj 75 160 t b f;
#X obj 75 132 spigot;
#X obj 307 34 ctlin 64;
#X obj 307 120 spigot;
#X obj 307 154 > 0;
#X obj 114 89 expr ($f1==$f2)||($f2==-1);
#X obj 360 88 expr ($f1==$f2)||($f2==-1);
#X obj 130 132 unpack f f;
#X obj 147 34 inlet;
#X obj 27 34 inlet;
#X obj 211 33 inlet;
#X obj 27 270 pack f f f;
#X obj 27 330 outlet;
#X obj 307 264 outlet;
#X text 4 55 timer pulse;
#X text 74 7 MIDI note input;
#X text 147 112 Synthetic note input;
#X text 306 8 MIDI controller input (pedal);
#X obj 27 229 ms2ticks \$0;
#X msg 27 300 note \$2 \$3 \$1;
#X connect 0 0 3 0;
#X connect 0 1 13 2;
#X connect 0 2 7 0;
#X connect 1 0 20 0;
#X connect 2 0 1 1;
#X connect 2 1 13 1;
#X connect 3 0 2 0;
#X connect 4 0 5 0;
#X connect 4 1 8 0;
#X connect 5 0 6 0;
#X connect 6 0 15 0;
#X connect 7 0 3 1;
#X connect 8 0 5 1;
#X connect 9 0 2 0;
#X connect 9 1 13 2;
#X connect 10 0 7 1;
#X connect 10 0 8 1;
#X connect 11 0 1 0;
#X connect 12 0 9 0;
#X connect 13 0 21 0;
#X connect 20 0 13 0;
#X connect 21 0 14 0;
#X restore 15 103 pd midi-in;
#X obj 82 134 s \$0-hold;
#X obj 15 134 s \$0-msg;
#X connect 0 0 4 0;
#X connect 1 0 4 1;
#X connect 3 0 4 2;
#X connect 4 0 6 0;
#X connect 4 1 5 0;
#X restore 77 448 pd note-input;
#N canvas 377 300 450 300 control-output 0;
#X obj 24 62 r \$0-ctl1;
#X obj 33 88 r \$0-ctl2;
#X obj 42 113 r \$0-ctl3;
#X obj 123 36 r \$0-ctl4;
#X obj 137 57 r \$0-ctl5;
#X obj 162 78 r \$0-ctl6;
#X obj 173 100 r \$0-ctl7;
#X text 13 15 Controller output;
#N canvas 356 335 831 454 midi-ctl 0;
#X obj 257 313 ctlout 7;
#X obj 179 313 pgmout;
#X obj 327 313 ctlout 10;
#X obj 403 313 ctlout 91;
#X obj 476 313 ctlout 93;
#X obj 548 313 ctlout 73;
#X obj 621 313 ctlout 74;
#X obj 133 114 moses 1;
#X obj 211 113 moses 0;
#X obj 281 111 moses 0;
#X obj 357 113 moses 0;
#X obj 430 113 moses 0;
#X obj 502 114 moses 0;
#X obj 575 113 moses 0;
#X obj 133 84 f -1;
#X obj 211 84 f -1;
#X obj 281 84 f -1;
#X obj 357 84 f -1;
#X obj 430 84 f -1;
#X obj 502 84 f -1;
#X obj 575 84 f -1;
#X obj 10 131 moses 1;
#X obj 10 53 inlet;
#X obj 133 54 inlet;
#X obj 211 54 inlet;
#X obj 281 55 inlet;
#X obj 357 54 inlet;
#X obj 430 54 inlet;
#X obj 502 54 inlet;
#X obj 575 55 inlet;
#X obj 179 282 spigot;
#X obj 366 211 > 0;
#X obj 366 183 t f f;
#X obj 257 281 spigot;
#X obj 327 282 spigot;
#X obj 403 283 spigot;
#X obj 476 283 spigot;
#X obj 548 283 spigot;
#X obj 621 279 spigot;
#X obj 10 78 t f f;
#X obj 56 160 t b;
#X obj 366 153 r \$0-chan;
#X obj 42 104 s \$0-chan;
#X obj 56 192 s \$0-bang;
#X obj 338 7 r \$0-bang;
#X obj 683 55 inlet;
#X obj 683 84 s \$0-bang;
#X connect 7 1 30 0;
#X connect 8 1 33 0;
#X connect 9 1 34 0;
#X connect 10 1 35 0;
#X connect 11 1 36 0;
#X connect 12 1 37 0;
#X connect 13 1 38 0;
#X connect 14 0 7 0;
#X connect 15 0 8 0;
#X connect 16 0 9 0;
#X connect 17 0 10 0;
#X connect 18 0 11 0;
#X connect 19 0 12 0;
#X connect 20 0 13 0;
#X connect 21 1 40 0;
#X connect 22 0 39 0;
#X connect 23 0 14 0;
#X connect 24 0 15 0;
#X connect 25 0 16 0;
#X connect 26 0 17 0;
#X connect 27 0 18 0;
#X connect 28 0 19 0;
#X connect 29 0 20 0;
#X connect 30 0 1 0;
#X connect 31 0 30 1;
#X connect 31 0 33 1;
#X connect 31 0 34 1;
#X connect 31 0 35 1;
#X connect 31 0 36 1;
#X connect 31 0 37 1;
#X connect 31 0 38 1;
#X connect 32 0 31 0;
#X connect 32 1 1 1;
#X connect 32 1 0 2;
#X connect 32 1 2 2;
#X connect 32 1 3 2;
#X connect 32 1 4 2;
#X connect 32 1 5 2;
#X connect 32 1 6 2;
#X connect 33 0 0 0;
#X connect 34 0 2 0;
#X connect 35 0 3 0;
#X connect 36 0 4 0;
#X connect 37 0 5 0;
#X connect 38 0 6 0;
#X connect 39 0 21 0;
#X connect 39 1 42 0;
#X connect 40 0 43 0;
#X connect 41 0 32 0;
#X connect 44 0 14 0;
#X connect 44 0 15 0;
#X connect 44 0 16 0;
#X connect 44 0 17 0;
#X connect 44 0 18 0;
#X connect 44 0 19 0;
#X connect 44 0 20 0;
#X connect 45 0 46 0;
#X coords 0 0 1 1 300 30 0;
#X restore 15 187 pd midi-ctl;
#X obj 15 36 r \$0-out-chan;
#X obj 172 130 r \$0-ctl-bang;
#X obj 172 159 route bang;
#X connect 0 0 8 1;
#X connect 1 0 8 2;
#X connect 2 0 8 3;
#X connect 3 0 8 4;
#X connect 4 0 8 5;
#X connect 5 0 8 6;
#X connect 6 0 8 7;
#X connect 9 0 8 0;
#X connect 10 0 11 0;
#X connect 11 0 8 8;
#X restore 179 474 pd control-output;
#N canvas 465 188 619 469 raptor 0;
#X msg 171 76 start;
#X msg 251 59 stop;
#X obj 341 230 s \$0-pulse;
#X obj 104 29 r \$0-msg;
#X obj 215 326 unpack f f f;
#X obj 12 29 r \$0-pulse;
#X obj 171 29 r \$0-start;
#X obj 251 29 r \$0-stop;
#X obj 341 255 s \$0-blink;
#X obj 282 307 s \$0-msg-r;
#X obj 215 282 route note;
#X text 140 228 Note output;
#X text 182 7 Note generator;
#X obj 326 29 r \$0-reset;
#X msg 326 60 reset;
#X obj 326 98 s \$0-ctl-bang;
#X obj 171 54 t b b;
#X obj 141 192 ticks2ms \$0;
#X obj 296 349 ticks2ms \$0;
#X obj 141 152 raptor \$0;
#N canvas 388 376 450 300 midi-out 0;
#X obj 111 22 inlet;
#X obj 111 145 unpack f f f;
#X obj 59 22 inlet;
#X obj 111 108 spigot;
#X obj 59 75 > 0;
#X obj 111 175 makenote;
#X obj 59 46 t f f;
#X obj 111 210 noteout;
#X msg 221 110 note \$1 \$2 \$3;
#X obj 221 209 outlet;
#X connect 0 0 3 0;
#X connect 0 0 8 0;
#X connect 1 0 5 0;
#X connect 1 1 5 1;
#X connect 1 2 5 2;
#X connect 2 0 6 0;
#X connect 3 0 1 0;
#X connect 4 0 3 1;
#X connect 5 0 7 0;
#X connect 5 1 7 1;
#X connect 6 0 4 0;
#X connect 6 1 7 2;
#X connect 8 0 9 0;
#X restore 141 401 pd midi-out;
#X obj 141 255 r \$0-out-chan;
#X obj 215 374 pack f f f;
#X obj 141 426 outlet;
#X obj 72 55 r \$0-time-msg;
#N canvas 84 512 450 300 msg-in 0;
#X obj 18 17 inlet;
#X obj 119 18 inlet;
#X obj 119 55 list split 1;
#X obj 18 114 timer;
#X obj 119 84 t b s;
#X obj 151 153 list;
#X obj 18 191 list prepend;
#X obj 18 263 outlet;
#X obj 18 229 list trim;
#X obj 18 152 ms2ticks \$0;
#X connect 0 0 3 0;
#X connect 1 0 2 0;
#X connect 2 0 4 0;
#X connect 2 1 5 1;
#X connect 3 0 9 0;
#X connect 4 0 3 1;
#X connect 4 1 5 0;
#X connect 5 0 6 1;
#X connect 6 0 8 0;
#X connect 8 0 7 0;
#X connect 9 0 6 0;
#X restore 12 93 pd msg-in;
#X obj 302 156 r \$0-tempo;
#X obj 251 211 delay;
#X obj 104 100 route list;
#N canvas 0 0 450 300 notes-in 0;
#X obj 18 17 inlet;
#X obj 119 18 inlet;
#X obj 18 114 timer;
#X obj 18 263 outlet;
#X obj 18 152 ms2ticks \$0;
#X obj 119 84 t b a;
#X obj 18 191 list;
#X connect 0 0 2 0;
#X connect 1 0 5 0;
#X connect 2 0 4 0;
#X connect 4 0 6 0;
#X connect 5 0 2 1;
#X connect 5 1 6 1;
#X connect 6 0 3 0;
#X restore 13 173 pd notes-in;
#X connect 0 0 19 0;
#X connect 1 0 19 0;
#X connect 1 0 27 0;
#X connect 3 0 28 0;
#X connect 4 0 22 0;
#X connect 4 1 22 1;
#X connect 4 2 18 0;
#X connect 5 0 19 0;
#X connect 5 0 25 0;
#X connect 5 0 29 0;
#X connect 6 0 16 0;
#X connect 7 0 1 0;
#X connect 10 0 4 0;
#X connect 10 1 9 0;
#X connect 13 0 14 0;
#X connect 13 0 15 0;
#X connect 14 0 19 0;
#X connect 16 0 0 0;
#X connect 16 1 2 0;
#X connect 17 0 27 0;
#X connect 18 0 22 2;
#X connect 19 0 17 0;
#X connect 19 1 10 0;
#X connect 20 0 23 0;
#X connect 21 0 20 0;
#X connect 22 0 20 1;
#X connect 24 0 25 1;
#X connect 25 0 19 0;
#X connect 27 0 2 0;
#X connect 27 0 8 0;
#X connect 28 0 29 1;
#X connect 28 1 19 0;
#X connect 29 0 19 0;
#X restore 4 448 pd raptor;
#X obj 4 475 outlet;
#N canvas 118 263 450 300 TODO 0;
#X obj 27 30 tgl 15 0 \$0-ostinato \$0-ostinato Ostinato 17 7 0 10
-262144 -1 -1 0 1;
#X obj 109 31 nbx 3 14 0 999 0 0 \$0-period \$0-period empty 0 -8 0
12 -262144 -1 -1 0 256 0;
#X text 150 31 bars;
#X restore 315 521 pd TODO;
#X text 3 497 external notes outlet;
#X text 222 420 external control inlet;
#X text 313 504 unfinished stuff;
#X text 467 355 (c) 2008 by Albert Graef;
#X text 534 445 Remote control:;
#X obj 530 472 pure-remote;
#X connect 114 0 113 0;
#X connect 119 0 120 0;
#X coords 0 -1 1 1 450 100 1 0 310;
