#N canvas 474 276 743 382 12;
#X obj 9 9 r upper;
#X obj 9 130 r lower;
#X obj 9 28 Raptor5;
#X obj 9 251 r lead;
#N canvas 426 159 740 370 harm-sweep 0;
#X obj 11 65 nbx 5 14 0 1 0 0 min-harm min-harm from 0 -8 0 12 -262144
-1 -1 0.04 256;
#X obj 11 98 nbx 5 14 0 1 0 0 max-harm max-harm to 0 -8 0 12 -262144
-1 -1 0.12 256;
#X obj 93 66 nbx 5 14 -1 1 0 0 min-pref min-pref from 0 -8 0 12 -262144
-1 -1 -0.8 256;
#X obj 93 99 nbx 5 14 -1 1 0 0 max-pref max-pref to 0 -8 0 12 -262144
-1 -1 0.8 256;
#X obj 10 130 nbx 5 14 0 1e+37 0 0 harm-time harm-time sweep-time 0
-8 0 12 -262144 -1 -1 10 256;
#X obj 92 130 nbx 5 14 0 1e+37 0 0 pref-time pref-time sweep-time 0
-8 0 12 -262144 -1 -1 10 256;
#X obj 9 165 vradio 15 1 0 3 harm-sweep harm-sweep harm-sweep 0 -8
0 12 -262144 -1 -1 2;
#X text 30 195 stop;
#X text 31 163 up;
#X text 30 180 down;
#X obj 93 166 vradio 15 1 0 3 pref-sweep pref-sweep pref-sweep 0 -8
0 12 -262144 -1 -1 2;
#X text 117 195 stop;
#X text 118 163 up;
#X text 117 180 down;
#X floatatom 399 238 5 0 0 0 - - -, f 5;
#X msg 399 262 min-harm \$1;
#X floatatom 577 238 5 0 0 0 - - -, f 5;
#X msg 577 262 pref \$1;
#X msg 399 173 stop;
#X msg 577 175 stop;
#X obj 448 59 r min-harm;
#X obj 423 38 r harm-time;
#N canvas 139 174 450 300 make-msg 0;
#X obj 101 18 inlet;
#X obj 152 19 inlet;
#X obj 85 129 f;
#X obj 136 131 f;
#X obj 20 17 inlet;
#X obj 269 18 inlet;
#X obj 253 130 f;
#X msg 20 93 stop;
#X obj 20 210 outlet;
#X obj 85 86 t b b;
#X obj 201 85 t b b;
#X obj 85 162 pack f f;
#X obj 201 163 pack f f;
#X obj 201 130 f;
#X obj 101 46 * 1000;
#X obj 20 47 sel 2 1 0;
#X connect 0 0 14 0;
#X connect 1 0 3 1;
#X connect 2 0 11 0;
#X connect 3 0 11 1;
#X connect 4 0 15 0;
#X connect 5 0 6 1;
#X connect 6 0 12 1;
#X connect 7 0 8 0;
#X connect 9 0 2 0;
#X connect 9 1 3 0;
#X connect 10 0 13 0;
#X connect 10 1 6 0;
#X connect 11 0 8 0;
#X connect 12 0 8 0;
#X connect 13 0 12 0;
#X connect 14 0 2 1;
#X connect 14 0 13 1;
#X connect 15 0 7 0;
#X connect 15 1 9 0;
#X connect 15 2 10 0;
#X restore 399 103 pd make-msg;
#X obj 472 81 r max-harm;
#X obj 399 14 r harm-sweep;
#X msg 466 174 \$2 \$1;
#X obj 399 133 route stop;
#N canvas 139 174 450 300 make-msg 0;
#X obj 101 18 inlet;
#X obj 152 19 inlet;
#X obj 85 129 f;
#X obj 136 131 f;
#X obj 20 17 inlet;
#X obj 269 18 inlet;
#X obj 253 130 f;
#X msg 20 93 stop;
#X obj 20 210 outlet;
#X obj 85 86 t b b;
#X obj 201 85 t b b;
#X obj 85 162 pack f f;
#X obj 201 163 pack f f;
#X obj 201 130 f;
#X obj 101 46 * 1000;
#X obj 20 47 sel 2 1 0;
#X connect 0 0 14 0;
#X connect 1 0 3 1;
#X connect 2 0 11 0;
#X connect 3 0 11 1;
#X connect 4 0 15 0;
#X connect 5 0 6 1;
#X connect 6 0 12 1;
#X connect 7 0 8 0;
#X connect 9 0 2 0;
#X connect 9 1 3 0;
#X connect 10 0 13 0;
#X connect 10 1 6 0;
#X connect 11 0 8 0;
#X connect 12 0 8 0;
#X connect 13 0 12 0;
#X connect 14 0 2 1;
#X connect 14 0 13 1;
#X connect 15 0 7 0;
#X connect 15 1 9 0;
#X connect 15 2 10 0;
#X restore 577 102 pd make-msg;
#X msg 644 173 \$2 \$1;
#X obj 577 132 route stop;
#X obj 577 13 r pref-sweep;
#X obj 601 37 r pref-time;
#X obj 626 58 r min-pref;
#X obj 651 80 r max-pref;
#X obj 262 15 loadbang;
#X obj 172 166 vradio 15 1 0 3 both-sweep both-sweep both 0 -8 0 12
-262144 -1 -1 2;
#X text 196 195 stop;
#X text 197 163 up;
#X text 196 180 down;
#X obj 11 243 r both-sweep;
#X obj 11 35 nbx 5 14 0 1 0 0 empty harm-display min-harm 0 -8 0 12
-262144 -1 -1 0.12 256;
#X obj 93 36 nbx 5 14 -1 1 0 0 empty pref-display pref 0 -8 0 12 -262144
-1 -1 0.8 256;
#X obj 286 263 s harm-display;
#X obj 642 262 s pref-display;
#X obj 11 268 s harm-sweep;
#X obj 11 293 s pref-sweep;
#X obj 399 211 line 0.12;
#X obj 577 211 line 0.8;
#X msg 262 40 \; harm-display 0.12 \; pref-display 0.8 \; min-harm
0.04 \; max-harm 0.12 \; harm-time 10 \; min-pref -0.8 \; max-pref
0.8 \; pref-time 10 \; harm-sweep 2 \; pref-sweep 2 \; both-sweep 2
;
#X obj 399 290 s upper;
#X obj 577 290 s upper;
#X obj 139 234 ctlin 1;
#X floatatom 139 261 5 0 0 0 - - -, f 5;
#X obj 139 284 / 127;
#X obj 139 309 expr $f1*($f3-$f2)+$f2;
#X floatatom 139 337 5 0 0 0 - - -, f 5;
#X obj 204 262 r min-harm;
#X obj 228 284 r max-harm;
#X connect 14 0 15 0;
#X connect 14 0 42 0;
#X connect 15 0 49 0;
#X connect 16 0 17 0;
#X connect 16 0 43 0;
#X connect 17 0 50 0;
#X connect 18 0 46 0;
#X connect 19 0 47 0;
#X connect 20 0 22 2;
#X connect 21 0 22 1;
#X connect 22 0 26 0;
#X connect 23 0 22 3;
#X connect 24 0 22 0;
#X connect 25 0 46 0;
#X connect 26 0 18 0;
#X connect 26 1 25 0;
#X connect 27 0 29 0;
#X connect 28 0 47 0;
#X connect 29 0 19 0;
#X connect 29 1 28 0;
#X connect 30 0 27 0;
#X connect 31 0 27 1;
#X connect 32 0 27 2;
#X connect 33 0 27 3;
#X connect 34 0 48 0;
#X connect 39 0 44 0;
#X connect 39 0 45 0;
#X connect 46 0 14 0;
#X connect 47 0 16 0;
#X connect 51 0 52 0;
#X connect 52 0 53 0;
#X connect 53 0 54 0;
#X connect 54 0 55 0;
#X connect 55 0 42 0;
#X connect 55 0 15 0;
#X connect 56 0 54 1;
#X connect 57 0 54 2;
#X coords 0 -1 1 1 240 220 1 0 0;
#X restore 462 74 pd harm-sweep;
#N canvas 174 30 922 705 controls 0;
#X msg 7 51 start;
#X msg 69 51 stop;
#X msg 121 51 reset;
#X obj 69 94 symbol;
#X obj 660 222 s upper;
#X obj 660 244 s lower;
#X obj 660 265 s lead;
#X msg 186 51 hold \$1;
#X obj 7 18 bng 15 250 50 0 empty empty Start 17 7 0 12 -262144 -1
-1;
#X obj 69 18 bng 15 250 50 0 empty empty Stop 17 7 0 12 -262144 -1
-1;
#X obj 126 18 bng 15 250 50 0 empty empty Reset 17 7 0 12 -262144 -1
-1;
#X obj 186 18 tgl 15 0 empty empty Hold 17 7 0 12 -262144 -1 -1 0 1
;
#X obj 203 93 keyname;
#X obj 203 121 list prepend;
#X obj 203 150 unpack s f;
#X obj 203 177 spigot;
#X obj 203 227 tgl 15 0 empty empty empty 17 7 0 10 -262144 -1 -1 0
1;
#X msg 203 247 mute \$1;
#X obj 203 270 s upper;
#X obj 267 227 tgl 15 0 empty empty empty 17 7 0 10 -262144 -1 -1 0
1;
#X msg 267 247 mute \$1;
#X obj 333 227 tgl 15 0 empty empty empty 17 7 0 10 -262144 -1 -1 0
1;
#X msg 333 247 mute \$1;
#X obj 267 270 s lower;
#X obj 333 270 s lead;
#X obj 15 307 loadbang;
#X obj 118 225 tgl 15 0 empty empty empty 17 7 0 10 -262144 -1 -1 0
1;
#X obj 118 292 sel 0 1;
#X obj 485 61 tgl 15 0 empty empty empty 17 7 0 10 -262144 -1 -1 0
1;
#X obj 485 104 sel 0 1;
#X msg 344 311 0;
#X msg 373 311 1;
#X msg 433 311 0;
#X msg 462 311 1;
#X obj 344 338 s harm-sweep;
#X obj 433 338 s pref-sweep;
#X msg 404 311 2;
#X msg 491 311 2;
#X msg 15 334 \; upper load_preset presets/arp.raptor \; lower load_preset
presets/bass.raptor \; lead load_preset presets/piano.raptor;
#X msg 14 399 \; upper load_preset presets/3/arp.raptor \; lower load_preset
presets/3/bass.raptor \; lead load_preset presets/3/vibes.raptor;
#X text 18 548 OSC interface;
#X obj 746 583 print OSC;
#X obj 401 689 bng 15 250 50 0 empty empty empty 17 7 0 10 -262144
-1 -1;
#X text 19 564 needs mrpeach;
#X obj 145 490 udpreceive 8000;
#X obj 145 521 unpackOSC;
#X obj 145 677 list;
#X msg 606 394 min-harm \$1;
#X msg 695 394 harm-bias \$1;
#X msg 796 394 pref \$1;
#X msg 861 394 pref-bias \$1;
#X obj 747 436 s upper;
#X obj 606 436 s harm-display;
#X obj 808 437 s pref-display;
#X obj 606 345 routeOSC /Harmonicity /HarmBias /Preference /PrefBias
/Density;
#X msg 975 418 max-notes \$1;
#X obj 145 617 routeOSC /Notes /Mute1 /Mute2 /Mute3 /Start /Preset
/Reset /Sustain /Ticks;
#X msg 535 705 ticks \$1;
#X obj 203 205 sel F1 F2 F3 F8 F9 Up Down Left Prior Next End F5 F4
;
#X obj 535 676 tgl 15 0 empty empty Metro 17 7 0 12 -262144 -1 -1 1
1;
#X obj 644 633 loadbang;
#X obj 974 395 int;
#X obj 746 549 spigot;
#X obj 791 517 tgl 15 0 empty empty empty 17 7 0 10 -262144 -1 -1 0
1;
#X obj 645 580 print OSC;
#X obj 645 546 spigot;
#X obj 690 514 tgl 15 0 empty empty empty 17 7 0 10 -262144 -1 -1 0
1;
#X obj 452 689 bng 15 250 50 0 empty empty empty 17 7 0 10 -262144
-1 -1;
#X obj 401 663 sel 1;
#X obj 452 663 sel 1;
#X obj 118 245 f;
#X obj 313 32 t b b;
#X obj 660 191 r allparts;
#X obj 145 702 s allparts;
#X obj 69 119 s allparts;
#X obj 535 733 s allparts;
#X text 263 7 reset: reload preset;
#X obj 313 57 s reload;
#X obj 17 225 r reload;
#X obj 145 557 pure f with f (x@_ y) = () if last (split "/" x) ===
"z" \; f x = x end;
#X text 313 574 get rid of touch messages;
#X text 668 35 Remote control:;
#X obj 664 62 pure-remote;
#X connect 0 0 3 0;
#X connect 1 0 3 0;
#X connect 2 0 3 0;
#X connect 3 0 74 0;
#X connect 7 0 74 0;
#X connect 8 0 0 0;
#X connect 9 0 1 0;
#X connect 10 0 71 0;
#X connect 11 0 7 0;
#X connect 12 0 13 0;
#X connect 12 1 13 1;
#X connect 13 0 14 0;
#X connect 14 0 15 0;
#X connect 14 1 15 1;
#X connect 15 0 58 0;
#X connect 16 0 17 0;
#X connect 17 0 18 0;
#X connect 19 0 20 0;
#X connect 20 0 23 0;
#X connect 21 0 22 0;
#X connect 22 0 24 0;
#X connect 25 0 38 0;
#X connect 26 0 70 0;
#X connect 27 0 38 0;
#X connect 27 1 39 0;
#X connect 28 0 29 0;
#X connect 29 0 9 0;
#X connect 29 1 8 0;
#X connect 30 0 34 0;
#X connect 31 0 34 0;
#X connect 32 0 35 0;
#X connect 33 0 35 0;
#X connect 36 0 34 0;
#X connect 37 0 35 0;
#X connect 42 0 26 0;
#X connect 44 0 45 0;
#X connect 45 0 65 0;
#X connect 45 0 79 0;
#X connect 46 0 73 0;
#X connect 47 0 51 0;
#X connect 48 0 51 0;
#X connect 49 0 51 0;
#X connect 50 0 51 0;
#X connect 54 0 47 0;
#X connect 54 0 52 0;
#X connect 54 1 48 0;
#X connect 54 2 49 0;
#X connect 54 2 53 0;
#X connect 54 3 50 0;
#X connect 54 4 61 0;
#X connect 54 5 62 0;
#X connect 55 0 51 0;
#X connect 56 0 46 0;
#X connect 56 1 16 0;
#X connect 56 2 19 0;
#X connect 56 3 21 0;
#X connect 56 4 29 0;
#X connect 56 5 68 0;
#X connect 56 6 69 0;
#X connect 56 7 11 0;
#X connect 56 8 59 0;
#X connect 56 9 54 0;
#X connect 57 0 75 0;
#X connect 58 0 16 0;
#X connect 58 1 19 0;
#X connect 58 2 21 0;
#X connect 58 3 26 0;
#X connect 58 4 28 0;
#X connect 58 5 30 0;
#X connect 58 6 31 0;
#X connect 58 7 36 0;
#X connect 58 8 32 0;
#X connect 58 9 33 0;
#X connect 58 10 37 0;
#X connect 58 11 11 0;
#X connect 58 12 59 0;
#X connect 59 0 57 0;
#X connect 60 0 59 0;
#X connect 61 0 55 0;
#X connect 62 0 41 0;
#X connect 63 0 62 1;
#X connect 65 0 64 0;
#X connect 66 0 65 1;
#X connect 67 0 10 0;
#X connect 68 0 42 0;
#X connect 69 0 67 0;
#X connect 70 0 27 0;
#X connect 71 0 77 0;
#X connect 71 1 2 0;
#X connect 72 0 4 0;
#X connect 72 0 5 0;
#X connect 72 0 6 0;
#X connect 78 0 70 0;
#X connect 79 0 56 0;
#X coords 0 -1 1 1 240 40 1 0 0;
#X restore 462 29 pd controls;
#X text 462 316 F8: Switch presets;
#X text 462 332 F9: Start/Stop;
#X text 463 348 Up/Down \, PgUp/PgDn: Harmonicity sweep;
#X text 615 316 F5: Hold;
#X obj 9 149 Raptor5;
#X obj 9 270 Raptor5;
#X text 462 299 F1 \, F2 \, F3: Mute;
#X text 615 300 F4: Metronome;
#X connect 0 0 2 0;
#X connect 1 0 10 0;
#X connect 3 0 11 0;
