#N canvas 408 41 641 615 12;
#X obj 118 104 sel 0 1 2 3 4;
#X obj 118 73 hradio 15 1 0 5 reinit preset-no empty 0 -8 0 10 -191407
-1 -1 0;
#X msg 118 160 \; upper load_preset presets/2/arp.raptor \; lower load_preset
presets/2/bass.raptor \; lead load_preset presets/2/piano.raptor;
#X msg 118 239 \; upper load_preset presets/2/arp.raptor \; lower load_preset
presets/2/bass.raptor \; lead load_preset presets/2/shred.raptor;
#X msg 118 322 \; upper load_preset presets/2/arp.raptor \; lower load_preset
presets/2/bass.raptor \; lead load_preset presets/2/shred2.raptor;
#X msg 118 406 \; upper load_preset presets/2/arp.raptor \; lower load_preset
presets/2/bass.raptor \; lead load_preset presets/2/vibes.raptor;
#X msg 118 486 \; upper load_preset presets/2/arp.raptor \; lower load_preset
presets/2/bass.raptor \; lead load_preset presets/2/wave.raptor;
#X connect 0 0 2 0;
#X connect 0 1 3 0;
#X connect 0 2 4 0;
#X connect 0 3 5 0;
#X connect 0 4 6 0;
#X connect 1 0 0 0;
#X coords 0 -1 1 1 187 20 1 8 71;
