#N canvas 370 166 718 436 12;
#X declare -lib raptor;
#X declare -lib raptor;
#X declare -lib raptor;
#N canvas 488 62 770 371 harm-sweep 0;
#X obj 11 65 nbx 5 14 0 1 0 0 min-harm min-harm from 0 -8 0 12 -262144
-1 -1 0.04 256;
#X obj 11 98 nbx 5 14 0 1 0 0 max-harm max-harm to 0 -8 0 12 -262144
-1 -1 0.12 256;
#X obj 93 66 nbx 5 14 -1 1 0 0 min-pref min-pref from 0 -8 0 12 -262144
-1 -1 -0.8 256;
#X obj 93 99 nbx 5 14 -1 1 0 0 max-pref max-pref to 0 -8 0 12 -262144
-1 -1 0.8 256;
#X obj 10 130 nbx 5 14 0 1e+37 0 0 harm-time harm-time sweep-time 0
-8 0 12 -262144 -1 -1 3 256;
#X obj 92 130 nbx 5 14 0 1e+37 0 0 pref-time pref-time sweep-time 0
-8 0 12 -262144 -1 -1 3 256;
#X obj 9 165 vradio 15 1 0 3 harm-sweep harm-sweep harm-sweep 0 -8
0 12 -262144 -1 -1 2;
#X text 30 195 stop;
#X text 31 163 up;
#X text 30 180 down;
#X obj 93 166 vradio 15 1 0 3 pref-sweep pref-sweep pref-sweep 0 -8
0 12 -262144 -1 -1 2;
#X text 117 195 stop;
#X text 118 163 up;
#X text 117 180 down;
#X floatatom 399 238 5 0 0 0 - - -;
#X msg 399 262 min-harm \$1;
#X floatatom 577 238 5 0 0 0 - - -;
#X msg 577 262 pref \$1;
#X msg 399 173 stop;
#X msg 577 175 stop;
#X obj 448 59 r min-harm;
#X obj 423 38 r harm-time;
#N canvas 139 174 450 300 make-msg 0;
#X obj 101 18 inlet;
#X obj 152 19 inlet;
#X obj 85 129 f;
#X obj 136 131 f;
#X obj 20 17 inlet;
#X obj 269 18 inlet;
#X obj 253 130 f;
#X msg 20 93 stop;
#X obj 20 210 outlet;
#X obj 85 86 t b b;
#X obj 201 85 t b b;
#X obj 85 162 pack f f;
#X obj 201 163 pack f f;
#X obj 201 130 f;
#X obj 101 46 * 1000;
#X obj 20 47 sel 2 1 0;
#X connect 0 0 14 0;
#X connect 1 0 3 1;
#X connect 2 0 11 0;
#X connect 3 0 11 1;
#X connect 4 0 15 0;
#X connect 5 0 6 1;
#X connect 6 0 12 1;
#X connect 7 0 8 0;
#X connect 9 0 2 0;
#X connect 9 1 3 0;
#X connect 10 0 13 0;
#X connect 10 1 6 0;
#X connect 11 0 8 0;
#X connect 12 0 8 0;
#X connect 13 0 12 0;
#X connect 14 0 2 1;
#X connect 14 0 13 1;
#X connect 15 0 7 0;
#X connect 15 1 9 0;
#X connect 15 2 10 0;
#X restore 399 103 pd make-msg;
#X obj 472 81 r max-harm;
#X obj 399 14 r harm-sweep;
#X msg 466 174 \$2 \$1;
#X obj 399 133 route stop;
#N canvas 139 174 450 300 make-msg 0;
#X obj 101 18 inlet;
#X obj 152 19 inlet;
#X obj 85 129 f;
#X obj 136 131 f;
#X obj 20 17 inlet;
#X obj 269 18 inlet;
#X obj 253 130 f;
#X msg 20 93 stop;
#X obj 20 210 outlet;
#X obj 85 86 t b b;
#X obj 201 85 t b b;
#X obj 85 162 pack f f;
#X obj 201 163 pack f f;
#X obj 201 130 f;
#X obj 101 46 * 1000;
#X obj 20 47 sel 2 1 0;
#X connect 0 0 14 0;
#X connect 1 0 3 1;
#X connect 2 0 11 0;
#X connect 3 0 11 1;
#X connect 4 0 15 0;
#X connect 5 0 6 1;
#X connect 6 0 12 1;
#X connect 7 0 8 0;
#X connect 9 0 2 0;
#X connect 9 1 3 0;
#X connect 10 0 13 0;
#X connect 10 1 6 0;
#X connect 11 0 8 0;
#X connect 12 0 8 0;
#X connect 13 0 12 0;
#X connect 14 0 2 1;
#X connect 14 0 13 1;
#X connect 15 0 7 0;
#X connect 15 1 9 0;
#X connect 15 2 10 0;
#X restore 577 102 pd make-msg;
#X msg 644 173 \$2 \$1;
#X obj 577 132 route stop;
#X obj 577 13 r pref-sweep;
#X obj 601 37 r pref-time;
#X obj 626 58 r min-pref;
#X obj 651 80 r max-pref;
#X obj 172 166 vradio 15 1 0 3 both-sweep both-sweep both 0 -8 0 12
-262144 -1 -1 2;
#X text 196 195 stop;
#X text 197 163 up;
#X text 196 180 down;
#X obj 11 243 r both-sweep;
#X obj 11 35 nbx 5 14 0 1 0 0 empty harm-display min-harm 0 -8 0 12
-262144 -1 -1 0.12 256;
#X obj 93 36 nbx 5 14 -1 1 0 0 empty pref-display pref 0 -8 0 12 -262144
-1 -1 0.8 256;
#X obj 436 318 s harm-display;
#X obj 624 315 s pref-display;
#X obj 11 268 s harm-sweep;
#X obj 11 293 s pref-sweep;
#X obj 399 211 line 0.12;
#X obj 577 211 line 0.8;
#X obj 399 290 s anypart;
#X obj 577 290 s anypart;
#N canvas 616 89 450 300 parts 0;
#X obj 20 57 s upper;
#X obj 20 79 s lower;
#X obj 20 100 s lead;
#X obj 20 26 r allparts;
#X obj 137 27 r anypart;
#X obj 137 52 t a a a a;
#X obj 137 85 spigot;
#X obj 137 110 s allparts;
#X obj 158 139 spigot;
#X obj 268 28 r part;
#X obj 286 89 == 0;
#X obj 305 114 == 1;
#X obj 158 164 s upper;
#X obj 176 192 spigot;
#X obj 198 246 spigot;
#X obj 176 217 s lower;
#X obj 198 271 s lead;
#X obj 323 138 == 2;
#X obj 342 163 == 3;
#X obj 268 53 t b f f f f;
#X obj 268 191 s resend;
#X connect 3 0 0 0;
#X connect 3 0 1 0;
#X connect 3 0 2 0;
#X connect 4 0 5 0;
#X connect 5 0 6 0;
#X connect 5 1 8 0;
#X connect 5 2 13 0;
#X connect 5 3 14 0;
#X connect 6 0 7 0;
#X connect 8 0 12 0;
#X connect 9 0 19 0;
#X connect 10 0 6 1;
#X connect 11 0 8 1;
#X connect 13 0 15 0;
#X connect 14 0 16 0;
#X connect 17 0 13 1;
#X connect 18 0 14 1;
#X connect 19 0 20 0;
#X connect 19 1 10 0;
#X connect 19 2 11 0;
#X connect 19 3 17 0;
#X connect 19 4 18 0;
#X restore 20 327 pd parts;
#X obj 172 67 vradio 15 1 0 4 part part part 0 -8 0 12 -228856 -1 -1
3;
#X text 196 111 lead;
#X text 196 96 lower;
#X text 196 81 upper;
#X text 197 64 all;
#X msg 262 40 \; harm-display 0.12 \; pref-display 0.8 \; min-harm
0.04 \; max-harm 0.12 \; harm-time 3 \; min-pref -0.8 \; max-pref 0.8
\; pref-time 3 \; harm-sweep 2 \; pref-sweep 2 \; both-sweep 2 \; part
3;
#N canvas 68 206 346 241 harm-control 0;
#X obj 39 204 outlet;
#X obj 39 18 ctlin 1;
#X floatatom 39 45 5 0 0 0 - - -;
#X obj 39 121 / 127;
#X obj 39 146 expr $f1*($f3-$f2)+$f2;
#X floatatom 39 174 5 0 0 0 - - -;
#X obj 114 94 r min-harm;
#X obj 190 119 r max-harm;
#X obj 39 69 swap 127;
#X obj 39 94 -;
#X connect 1 0 2 0;
#X connect 2 0 8 0;
#X connect 3 0 4 0;
#X connect 4 0 5 0;
#X connect 5 0 0 0;
#X connect 6 0 4 1;
#X connect 7 0 4 2;
#X connect 8 0 9 0;
#X connect 8 1 9 1;
#X connect 9 0 3 0;
#X restore 453 235 pd harm-control;
#N canvas 444 216 346 241 pref-control 0;
#X obj 39 204 outlet;
#X floatatom 39 45 5 0 0 0 - - -;
#X obj 39 121 / 127;
#X obj 39 146 expr $f1*($f3-$f2)+$f2;
#X floatatom 39 174 5 0 0 0 - - -;
#X obj 39 69 swap 127;
#X obj 39 94 -;
#X obj 114 94 r min-pref;
#X obj 190 119 r max-pref;
#X obj 39 18 ctlin 2;
#X connect 1 0 5 0;
#X connect 2 0 3 0;
#X connect 3 0 4 0;
#X connect 4 0 0 0;
#X connect 5 0 6 0;
#X connect 5 1 6 1;
#X connect 6 0 2 0;
#X connect 7 0 3 1;
#X connect 8 0 3 2;
#X connect 9 0 1 0;
#X restore 645 230 pd pref-control;
#X text 108 320 Extra MIDI controls for interactive use:;
#X text 107 340 cc1: harmonicity \, cc2: preference \, pitchbend: harm.
bias;
#X obj 262 15 r reinit;
#N canvas 433 184 650 294 misc-controls 0;
#X msg 29 158 harm-bias \$1;
#X obj 29 183 outlet;
#X obj 29 35 ctlin 5;
#X floatatom 29 60 5 0 0 0 - - -;
#X obj 29 82 - 64;
#X obj 29 107 / 64;
#X floatatom 29 132 5 0 0 0 - - -;
#X floatatom 153 60 5 0 0 0 - - -;
#X obj 153 82 - 64;
#X obj 153 107 / 64;
#X floatatom 153 132 5 0 0 0 - - -;
#X obj 153 35 ctlin 6;
#X msg 153 158 pref-bias \$1;
#X floatatom 268 60 5 0 0 0 - - -;
#X obj 268 82 - 64;
#X obj 268 107 / 64;
#X floatatom 268 132 5 0 0 0 - - -;
#X msg 268 158 max-notes-bias \$1;
#X floatatom 430 59 5 0 0 0 - - -;
#X floatatom 430 131 5 0 0 0 - - -;
#X obj 430 106 int;
#X msg 430 157 max-notes \$1;
#X obj 430 81 / 21.33;
#X obj 268 35 ctlin 8;
#X obj 430 34 ctlin 4;
#X connect 0 0 1 0;
#X connect 2 0 3 0;
#X connect 3 0 4 0;
#X connect 4 0 5 0;
#X connect 5 0 6 0;
#X connect 6 0 0 0;
#X connect 7 0 8 0;
#X connect 8 0 9 0;
#X connect 9 0 10 0;
#X connect 10 0 12 0;
#X connect 11 0 7 0;
#X connect 12 0 1 0;
#X connect 13 0 14 0;
#X connect 14 0 15 0;
#X connect 15 0 16 0;
#X connect 16 0 17 0;
#X connect 17 0 1 0;
#X connect 18 0 22 0;
#X connect 19 0 21 0;
#X connect 20 0 19 0;
#X connect 21 0 1 0;
#X connect 22 0 20 0;
#X connect 23 0 13 0;
#X connect 24 0 18 0;
#X restore 197 260 pd misc-controls;
#X connect 14 0 15 0;
#X connect 14 0 41 0;
#X connect 15 0 47 0;
#X connect 16 0 17 0;
#X connect 16 0 42 0;
#X connect 17 0 48 0;
#X connect 18 0 45 0;
#X connect 19 0 46 0;
#X connect 20 0 22 2;
#X connect 21 0 22 1;
#X connect 22 0 26 0;
#X connect 23 0 22 3;
#X connect 24 0 22 0;
#X connect 25 0 45 0;
#X connect 26 0 18 0;
#X connect 26 1 25 0;
#X connect 27 0 29 0;
#X connect 28 0 46 0;
#X connect 29 0 19 0;
#X connect 29 1 28 0;
#X connect 30 0 27 0;
#X connect 31 0 27 1;
#X connect 32 0 27 2;
#X connect 33 0 27 3;
#X connect 38 0 43 0;
#X connect 38 0 44 0;
#X connect 45 0 14 0;
#X connect 46 0 16 0;
#X connect 56 0 15 0;
#X connect 56 0 41 0;
#X connect 57 0 42 0;
#X connect 57 0 17 0;
#X connect 60 0 55 0;
#X connect 61 0 47 0;
#X coords 0 -1 1 1 240 220 1 0 0;
#X restore 462 55 pd harm-sweep;
#N canvas 257 34 922 687 controls 0;
#X msg 7 51 start;
#X msg 69 51 stop;
#X msg 121 51 reset;
#X msg 186 51 hold \$1;
#X obj 7 18 bng 15 250 50 0 empty empty Start 17 7 0 12 -262144 -1
-1;
#X obj 69 18 bng 15 250 50 0 empty empty Stop 17 7 0 12 -262144 -1
-1;
#X obj 126 18 bng 15 250 50 0 empty empty Reset 17 7 0 12 -262144 -1
-1;
#X obj 186 18 tgl 15 0 empty empty Hold 17 7 0 12 -262144 -1 -1 0 1
;
#X obj 203 93 keyname;
#X obj 203 121 list prepend;
#X obj 203 150 unpack s f;
#X obj 203 177 spigot;
#X msg 203 393 mute \$1;
#X obj 203 416 s upper;
#X msg 273 393 mute \$1;
#X msg 343 393 mute \$1;
#X obj 273 416 s lower;
#X obj 343 416 s lead;
#X obj 485 61 tgl 15 0 empty empty empty 17 7 0 10 -262144 -1 -1 0
1;
#X obj 485 104 sel 0 1;
#X msg 471 232 0;
#X msg 515 232 1;
#X msg 605 232 0;
#X msg 650 232 1;
#X obj 471 259 s harm-sweep;
#X obj 605 259 s pref-sweep;
#X msg 560 232 2;
#X msg 694 232 2;
#X text 18 548 OSC interface;
#X text 19 564 needs mrpeach;
#X obj 145 677 list;
#X msg 555 705 ticks \$1;
#X obj 555 676 tgl 15 0 empty empty Metro 17 7 0 12 -262144 -1 -1 1
1;
#X obj 644 633 loadbang;
#X obj 574 577 print OSC;
#X obj 574 543 spigot;
#X obj 613 511 tgl 15 0 empty empty empty 17 7 0 10 -262144 -1 -1 0
1;
#X obj 409 689 bng 15 250 50 0 empty empty empty 17 7 0 10 -262144
-1 -1;
#X obj 409 663 sel 1;
#X obj 313 32 t b b;
#X obj 145 702 s allparts;
#X obj 69 119 s allparts;
#X obj 555 733 s allparts;
#X text 263 7 reset: reload preset;
#X obj 145 557 pure f with f (x@_ y) = () if last (split "/" x) ===
"z" \; f x = x end;
#X text 313 574 get rid of touch messages;
#X text 751 575 Remote control:;
#X obj 755 602 pure-remote;
#X obj 471 184 sel KP_Home KP_End KP_Left KP_Up KP_Down KP_Begin KP_Prior
KP_Next KP_Right;
#X obj 203 211 sel F1 F2 F3 F8 F9 F5 F4;
#X msg 739 231 0;
#X msg 784 231 1;
#X msg 829 231 2;
#X obj 739 258 s both-sweep;
#X obj 145 521 r osc-input;
#X obj 485 304 r params;
#X obj 485 329 route upper lower lead;
#X obj 485 354 route mute;
#X msg 485 379 /Mute1 \$1;
#X obj 571 354 route mute;
#X obj 653 354 route mute;
#X msg 571 379 /Mute2 \$1;
#X msg 653 379 /Mute3 \$1;
#X obj 722 463 spigot;
#X obj 761 431 tgl 15 0 empty empty empty 17 7 0 10 -262144 -1 -1 0
1;
#X obj 722 501 print OSC-Out;
#X obj 565 441 s osc-output;
#X obj 565 412 t a a;
#X msg 772 381 /Harmonicity \$1;
#X msg 840 406 /HarmBias \$1;
#X msg 908 382 /Preference \$1;
#X obj 920 473 s osc-output;
#X obj 920 444 t a a;
#X msg 976 406 /PrefBias \$1;
#X msg 1044 382 /Density \$1;
#X msg 477 412 /Start 1;
#X msg 477 442 /Start 0;
#X msg 478 473 /Ticks \$1;
#X obj 203 315 f;
#X obj 203 340 swap 1;
#X obj 203 365 -;
#N canvas 288 86 561 476 presets 0;
#X obj 216 -36 inlet;
#X obj 216 78 f;
#X obj 144 77 r reload;
#X obj 216 103 + 1;
#X floatatom 216 153 5 0 0 0 - - -;
#X obj 216 -11 sel bang;
#X msg 216 14 1;
#X obj 216 39 t b f;
#X obj 216 128 mod 5;
#X obj 104 202 sel 0 1 2 3 4;
#X msg 104 227 /Presets/1/1 1;
#X obj 137 359 s osc-output;
#X msg 121 252 /Presets/2/1 1;
#X msg 139 277 /Presets/3/1 1;
#X msg 157 302 /Presets/4/1 1;
#X msg 175 327 /Presets/5/1 1;
#X obj 101 -34 r resend;
#X msg 101 21 send_preset;
#X obj 104 151 f;
#X obj 101 52 s allparts;
#X obj 101 -9 t b b;
#X obj 216 177 s preset-no;
#X obj 25 115 r reinit;
#X connect 0 0 5 0;
#X connect 1 0 3 0;
#X connect 2 0 8 0;
#X connect 3 0 8 0;
#X connect 4 0 1 1;
#X connect 4 0 9 0;
#X connect 4 0 18 1;
#X connect 4 0 21 0;
#X connect 5 0 6 0;
#X connect 5 1 7 0;
#X connect 6 0 7 0;
#X connect 7 0 1 0;
#X connect 7 1 3 1;
#X connect 8 0 4 0;
#X connect 9 0 10 0;
#X connect 9 1 12 0;
#X connect 9 2 13 0;
#X connect 9 3 14 0;
#X connect 9 4 15 0;
#X connect 10 0 11 0;
#X connect 12 0 11 0;
#X connect 13 0 11 0;
#X connect 14 0 11 0;
#X connect 15 0 11 0;
#X connect 16 0 20 0;
#X connect 17 0 19 0;
#X connect 18 0 9 0;
#X connect 18 0 1 1;
#X connect 20 0 17 0;
#X connect 20 1 18 0;
#X connect 22 0 18 0;
#X restore 371 141 pd presets;
#X obj 273 316 f;
#X obj 273 341 swap 1;
#X obj 273 366 -;
#X obj 343 317 f;
#X obj 343 342 swap 1;
#X obj 343 367 -;
#X obj 221 286 tgl 15 0 empty empty empty 17 7 0 10 -262144 -1 -1 0
1;
#X obj 291 285 tgl 15 0 empty empty empty 17 7 0 10 -262144 -1 -1 0
1;
#X obj 361 285 tgl 15 0 empty empty empty 17 7 0 10 -262144 -1 -1 0
1;
#X obj 53 227 r osc-ready;
#X msg 99 285 1;
#X obj 145 617 routeOSC /Notes /Mute1 /Mute2 /Mute3 /Start /Preset
/Reset /Sustain /Ticks /Presets;
#N canvas 433 184 450 300 choose 0;
#X obj 26 11 inlet;
#X obj 26 36 routeOSC /1 /2 /3 /4 /5;
#X obj 26 61 routeOSC /1;
#X obj 26 86 sel 1;
#X obj 26 111 bng 15 250 50 0 empty empty empty 17 7 0 10 -262144 -1
-1;
#X obj 26 191 outlet;
#X obj 161 62 routeOSC /1;
#X obj 161 87 sel 1;
#X obj 161 112 bng 15 250 50 0 empty empty empty 17 7 0 10 -262144
-1 -1;
#X obj 73 86 routeOSC /1;
#X obj 73 111 sel 1;
#X obj 73 136 bng 15 250 50 0 empty empty empty 17 7 0 10 -262144 -1
-1;
#X obj 210 86 routeOSC /1;
#X obj 210 111 sel 1;
#X obj 210 136 bng 15 250 50 0 empty empty empty 17 7 0 10 -262144
-1 -1;
#X obj 297 67 routeOSC /1;
#X obj 297 92 sel 1;
#X obj 297 117 bng 15 250 50 0 empty empty empty 17 7 0 10 -262144
-1 -1;
#X msg 26 131 0;
#X msg 73 156 1;
#X msg 161 132 2;
#X msg 210 156 3;
#X msg 297 137 4;
#X connect 0 0 1 0;
#X connect 1 0 2 0;
#X connect 1 1 9 0;
#X connect 1 2 6 0;
#X connect 1 3 12 0;
#X connect 1 4 15 0;
#X connect 2 0 3 0;
#X connect 3 0 4 0;
#X connect 4 0 18 0;
#X connect 6 0 7 0;
#X connect 7 0 8 0;
#X connect 8 0 20 0;
#X connect 9 0 10 0;
#X connect 10 0 11 0;
#X connect 11 0 19 0;
#X connect 12 0 13 0;
#X connect 13 0 14 0;
#X connect 14 0 21 0;
#X connect 15 0 16 0;
#X connect 16 0 17 0;
#X connect 17 0 22 0;
#X connect 18 0 5 0;
#X connect 19 0 5 0;
#X connect 20 0 5 0;
#X connect 21 0 5 0;
#X connect 22 0 5 0;
#X restore 463 678 pd choose;
#X obj 463 711 s reload;
#X obj 347 663 sel 0;
#N canvas 433 184 340 269 parts 0;
#X obj 14 1 spigot;
#X obj 13 31 spigot;
#X obj 205 -50 r part;
#X obj 205 -25 t f f f f;
#X obj 205 0 == 0;
#X obj 225 25 == 1;
#X obj 65 60 spigot;
#X obj 115 90 spigot;
#X obj 245 49 == 2;
#X obj 265 74 == 3;
#X obj 14 -48 inlet;
#X obj 65 -48 inlet;
#X obj 115 -48 inlet;
#X obj 29 155 outlet;
#X connect 0 0 13 0;
#X connect 1 0 13 0;
#X connect 2 0 3 0;
#X connect 3 0 4 0;
#X connect 3 1 5 0;
#X connect 3 2 8 0;
#X connect 3 3 9 0;
#X connect 4 0 0 1;
#X connect 5 0 1 1;
#X connect 6 0 13 0;
#X connect 7 0 13 0;
#X connect 8 0 6 1;
#X connect 9 0 7 1;
#X connect 10 0 0 0;
#X connect 10 0 1 0;
#X connect 11 0 6 0;
#X connect 12 0 7 0;
#X restore 772 314 pd parts;
#X obj 29 286 bng 15 250 50 0 empty empty empty 17 7 0 10 -262144 -1
-1;
#X obj 53 320 s reload;
#X obj 772 338 route min_harm harm_bias pref pref_bias max_notes max_notes_bias
;
#X msg 1070 407 /DensityBias \$1;
#X text 437 6 XXXFIXME: This patch is a HUGE mess. It needs cleaning
up.;
#N canvas 433 184 605 421 more-osc-in 0;
#X msg 149 24 min-harm \$1;
#X msg 210 52 harm-bias \$1;
#X msg 271 24 pref \$1;
#X msg 333 24 pref-bias \$1;
#X obj 149 111 s harm-display;
#X obj 357 112 s pref-display;
#X msg 394 53 max-notes \$1;
#X obj 283 111 s anypart;
#X obj 149 -25 routeOSC /Harmonicity /HarmBias /Preference /PrefBias
/Density /DensityBias;
#X msg 455 21 max-notes-bias \$1;
#X obj 150 147 routeOSC /SweepTime /HarmSweep /PrefSweep /BothSweep
/PartSelect;
#X obj 511 225 spigot;
#X obj 550 193 tgl 15 0 empty empty empty 17 7 0 10 -262144 -1 -1 0
1;
#X obj 511 259 print OSC?;
#X obj 96 188 t f f;
#X obj 96 213 s harm-time;
#X obj 128 236 s pref-time;
#N canvas 579 163 450 300 choose 0;
#X obj 26 11 inlet;
#X obj 26 60 routeOSC /1 /2 /3 /4 /5;
#X obj 26 86 sel 1;
#X obj 26 111 bng 15 250 50 0 empty empty empty 17 7 0 10 -262144 -1
-1;
#X obj 26 191 outlet;
#X obj 122 87 sel 1;
#X obj 122 112 bng 15 250 50 0 empty empty empty 17 7 0 10 -262144
-1 -1;
#X obj 73 111 sel 1;
#X obj 73 136 bng 15 250 50 0 empty empty empty 17 7 0 10 -262144 -1
-1;
#X obj 168 111 sel 1;
#X obj 168 136 bng 15 250 50 0 empty empty empty 17 7 0 10 -262144
-1 -1;
#X obj 215 92 sel 1;
#X obj 215 117 bng 15 250 50 0 empty empty empty 17 7 0 10 -262144
-1 -1;
#X msg 26 131 0;
#X msg 73 156 1;
#X msg 122 132 2;
#X msg 168 156 3;
#X msg 215 137 4;
#X obj 26 35 routeOSC /1;
#X connect 0 0 18 0;
#X connect 1 0 2 0;
#X connect 1 1 7 0;
#X connect 1 2 5 0;
#X connect 1 3 9 0;
#X connect 1 4 11 0;
#X connect 2 0 3 0;
#X connect 3 0 13 0;
#X connect 5 0 6 0;
#X connect 6 0 15 0;
#X connect 7 0 8 0;
#X connect 8 0 14 0;
#X connect 9 0 10 0;
#X connect 10 0 16 0;
#X connect 11 0 12 0;
#X connect 12 0 17 0;
#X connect 13 0 4 0;
#X connect 14 0 4 0;
#X connect 15 0 4 0;
#X connect 16 0 4 0;
#X connect 17 0 4 0;
#X connect 18 0 1 0;
#X restore 222 196 pd choose;
#X obj 222 229 s harm-sweep;
#X obj 149 -60 inlet;
#X obj 295 288 s pref-sweep;
#X obj 366 230 s both-sweep;
#X obj 438 289 s part;
#N canvas 579 163 450 300 choose 0;
#X obj 26 11 inlet;
#X obj 26 60 routeOSC /1 /2 /3 /4 /5;
#X obj 26 86 sel 1;
#X obj 26 111 bng 15 250 50 0 empty empty empty 17 7 0 10 -262144 -1
-1;
#X obj 26 191 outlet;
#X obj 122 87 sel 1;
#X obj 122 112 bng 15 250 50 0 empty empty empty 17 7 0 10 -262144
-1 -1;
#X obj 73 111 sel 1;
#X obj 73 136 bng 15 250 50 0 empty empty empty 17 7 0 10 -262144 -1
-1;
#X obj 168 111 sel 1;
#X obj 168 136 bng 15 250 50 0 empty empty empty 17 7 0 10 -262144
-1 -1;
#X obj 215 92 sel 1;
#X obj 215 117 bng 15 250 50 0 empty empty empty 17 7 0 10 -262144
-1 -1;
#X msg 26 131 0;
#X msg 73 156 1;
#X msg 122 132 2;
#X msg 168 156 3;
#X msg 215 137 4;
#X obj 26 35 routeOSC /1;
#X connect 0 0 18 0;
#X connect 1 0 2 0;
#X connect 1 1 7 0;
#X connect 1 2 5 0;
#X connect 1 3 9 0;
#X connect 1 4 11 0;
#X connect 2 0 3 0;
#X connect 3 0 13 0;
#X connect 5 0 6 0;
#X connect 6 0 15 0;
#X connect 7 0 8 0;
#X connect 8 0 14 0;
#X connect 9 0 10 0;
#X connect 10 0 16 0;
#X connect 11 0 12 0;
#X connect 12 0 17 0;
#X connect 13 0 4 0;
#X connect 14 0 4 0;
#X connect 15 0 4 0;
#X connect 16 0 4 0;
#X connect 17 0 4 0;
#X connect 18 0 1 0;
#X restore 295 256 pd choose;
#N canvas 579 163 450 300 choose 0;
#X obj 26 11 inlet;
#X obj 26 60 routeOSC /1 /2 /3 /4 /5;
#X obj 26 86 sel 1;
#X obj 26 111 bng 15 250 50 0 empty empty empty 17 7 0 10 -262144 -1
-1;
#X obj 26 191 outlet;
#X obj 122 87 sel 1;
#X obj 122 112 bng 15 250 50 0 empty empty empty 17 7 0 10 -262144
-1 -1;
#X obj 73 111 sel 1;
#X obj 73 136 bng 15 250 50 0 empty empty empty 17 7 0 10 -262144 -1
-1;
#X obj 168 111 sel 1;
#X obj 168 136 bng 15 250 50 0 empty empty empty 17 7 0 10 -262144
-1 -1;
#X obj 215 92 sel 1;
#X obj 215 117 bng 15 250 50 0 empty empty empty 17 7 0 10 -262144
-1 -1;
#X msg 26 131 0;
#X msg 73 156 1;
#X msg 122 132 2;
#X msg 168 156 3;
#X msg 215 137 4;
#X obj 26 35 routeOSC /1;
#X connect 0 0 18 0;
#X connect 1 0 2 0;
#X connect 1 1 7 0;
#X connect 1 2 5 0;
#X connect 1 3 9 0;
#X connect 1 4 11 0;
#X connect 2 0 3 0;
#X connect 3 0 13 0;
#X connect 5 0 6 0;
#X connect 6 0 15 0;
#X connect 7 0 8 0;
#X connect 8 0 14 0;
#X connect 9 0 10 0;
#X connect 10 0 16 0;
#X connect 11 0 12 0;
#X connect 12 0 17 0;
#X connect 13 0 4 0;
#X connect 14 0 4 0;
#X connect 15 0 4 0;
#X connect 16 0 4 0;
#X connect 17 0 4 0;
#X connect 18 0 1 0;
#X restore 366 197 pd choose;
#N canvas 579 163 450 300 choose 0;
#X obj 26 11 inlet;
#X obj 26 60 routeOSC /1 /2 /3 /4 /5;
#X obj 26 86 sel 1;
#X obj 26 111 bng 15 250 50 0 empty empty empty 17 7 0 10 -262144 -1
-1;
#X obj 26 191 outlet;
#X obj 122 87 sel 1;
#X obj 122 112 bng 15 250 50 0 empty empty empty 17 7 0 10 -262144
-1 -1;
#X obj 73 111 sel 1;
#X obj 73 136 bng 15 250 50 0 empty empty empty 17 7 0 10 -262144 -1
-1;
#X obj 168 111 sel 1;
#X obj 168 136 bng 15 250 50 0 empty empty empty 17 7 0 10 -262144
-1 -1;
#X obj 215 92 sel 1;
#X obj 215 117 bng 15 250 50 0 empty empty empty 17 7 0 10 -262144
-1 -1;
#X msg 26 131 0;
#X msg 73 156 1;
#X msg 122 132 2;
#X msg 168 156 3;
#X msg 215 137 4;
#X obj 26 35 routeOSC /1;
#X connect 0 0 18 0;
#X connect 1 0 2 0;
#X connect 1 1 7 0;
#X connect 1 2 5 0;
#X connect 1 3 9 0;
#X connect 1 4 11 0;
#X connect 2 0 3 0;
#X connect 3 0 13 0;
#X connect 5 0 6 0;
#X connect 6 0 15 0;
#X connect 7 0 8 0;
#X connect 8 0 14 0;
#X connect 9 0 10 0;
#X connect 10 0 16 0;
#X connect 11 0 12 0;
#X connect 12 0 17 0;
#X connect 13 0 4 0;
#X connect 14 0 4 0;
#X connect 15 0 4 0;
#X connect 16 0 4 0;
#X connect 17 0 4 0;
#X connect 18 0 1 0;
#X restore 438 256 pd choose;
#X connect 0 0 7 0;
#X connect 1 0 7 0;
#X connect 2 0 7 0;
#X connect 3 0 7 0;
#X connect 6 0 7 0;
#X connect 8 0 0 0;
#X connect 8 0 4 0;
#X connect 8 1 1 0;
#X connect 8 2 2 0;
#X connect 8 2 5 0;
#X connect 8 3 3 0;
#X connect 8 4 6 0;
#X connect 8 5 9 0;
#X connect 8 6 10 0;
#X connect 9 0 7 0;
#X connect 10 0 14 0;
#X connect 10 1 17 0;
#X connect 10 2 23 0;
#X connect 10 3 24 0;
#X connect 10 4 25 0;
#X connect 10 5 11 0;
#X connect 11 0 13 0;
#X connect 12 0 11 1;
#X connect 14 0 15 0;
#X connect 14 1 16 0;
#X connect 17 0 18 0;
#X connect 19 0 8 0;
#X connect 23 0 20 0;
#X connect 24 0 21 0;
#X connect 25 0 22 0;
#X restore 650 690 pd more-osc-in;
#N canvas 743 22 572 450 more-osc-out 0;
#X obj 90 167 r harm-time;
#X obj 90 192 r pref-time;
#X msg 90 217 /SweepTime \$1;
#X obj 39 256 r harm-sweep;
#X obj 39 281 sel 0 1 2;
#X msg 39 306 /HarmSweep/1/1 1;
#X msg 59 326 /HarmSweep/1/2 1;
#X msg 79 350 /HarmSweep/1/3 1;
#X obj 222 419 s osc-output;
#X obj 222 390 t a a;
#X obj 210 276 sel 0 1 2;
#X obj 394 277 sel 0 1 2;
#X obj 210 251 r pref-sweep;
#X obj 394 252 r both-sweep;
#X msg 210 301 /PrefSweep/1/1 1;
#X msg 230 321 /PrefSweep/1/2 1;
#X msg 250 345 /PrefSweep/1/3 1;
#X msg 394 302 /BothSweep/1/1 1;
#X msg 414 322 /BothSweep/1/2 1;
#X msg 434 346 /BothSweep/1/3 1;
#X obj 254 446 outlet;
#X obj 289 84 r part;
#X obj 289 109 sel 0 1 2 3;
#X msg 289 134 /PartSelect/1/1 1;
#X msg 308 154 /PartSelect/1/2 1;
#X msg 328 178 /PartSelect/1/3 1;
#X msg 344 206 /PartSelect/1/4 1;
#X connect 0 0 2 0;
#X connect 1 0 2 0;
#X connect 2 0 9 0;
#X connect 3 0 4 0;
#X connect 4 0 5 0;
#X connect 4 1 6 0;
#X connect 4 2 7 0;
#X connect 5 0 9 0;
#X connect 6 0 9 0;
#X connect 7 0 9 0;
#X connect 9 0 8 0;
#X connect 9 1 20 0;
#X connect 10 0 14 0;
#X connect 10 1 15 0;
#X connect 10 2 16 0;
#X connect 11 0 17 0;
#X connect 11 1 18 0;
#X connect 11 2 19 0;
#X connect 12 0 10 0;
#X connect 13 0 11 0;
#X connect 14 0 9 0;
#X connect 15 0 9 0;
#X connect 16 0 9 0;
#X connect 17 0 9 0;
#X connect 18 0 9 0;
#X connect 19 0 9 0;
#X connect 21 0 22 0;
#X connect 22 0 23 0;
#X connect 22 1 24 0;
#X connect 22 2 25 0;
#X connect 22 3 26 0;
#X connect 23 0 9 0;
#X connect 24 0 9 0;
#X connect 25 0 9 0;
#X connect 26 0 9 0;
#X restore 926 518 pd more-osc-out;
#X obj 53 252 t b b b;
#X obj 313 57 s reload-all;
#X obj 26 178 r reload-all;
#X msg 95 408 1;
#X obj 25 409 bng 15 250 50 0 empty empty empty 17 7 0 10 -262144 -1
-1;
#X obj 49 375 t b b b;
#X obj 26 203 t b b;
#X obj 49 349 r osc-connect;
#X obj 49 443 s reinit;
#N canvas 363 148 671 545 midi-in 0;
#X text 13 21 cc 80 = start/stop;
#X obj 53 50 ctlin 80;
#X obj 53 75 moses 64;
#X obj 54 103 bng 15 250 50 0 empty empty empty 17 7 0 10 -262144 -1
-1;
#X obj 401 50 pgmin;
#X obj 401 75 - 1;
#X obj 401 100 s reload;
#X obj 54 123 outlet;
#X obj 206 53 midirealtimein;
#X obj 206 78 sel 250 251 252;
#X msg 206 103 1;
#X msg 274 103 0;
#X text 189 134 TODO: MIDI clock input;
#X obj 54 219 > 0;
#X obj 208 219 > 0;
#X obj 208 244 outlet;
#X text 31 246 start/stop;
#X text 210 280 hold;
#X obj 288 219 > 0;
#X obj 288 244 outlet;
#X obj 360 219 > 0;
#X obj 360 244 outlet;
#X obj 432 219 > 0;
#X obj 432 244 outlet;
#X obj 288 194 ctlin 24;
#X obj 360 194 ctlin 25;
#X obj 432 194 ctlin 26;
#X text 350 278 mute;
#X obj 54 194 ctlin 20;
#X obj 208 194 ctlin 22;
#X obj 137 219 > 0;
#X obj 137 244 outlet;
#X obj 137 194 ctlin 21;
#X text 139 280 metro;
#X text 238 164 Akai MPK mini: pads in cc mode;
#X text 202 20 system realtime;
#X obj 508 219 > 0;
#X obj 508 194 ctlin 23;
#X obj 508 244 * -1;
#X obj 508 269 sel 0;
#X obj 580 219 > 0;
#X obj 580 194 ctlin 27;
#X obj 545 296 outlet;
#X text 567 266 preset +/-;
#X floatatom 520 75 5 0 0 0 - - -;
#X obj 520 99 s reload;
#X obj 520 48 ctlin 16;
#X text 367 20 prog change = preset (also cc #16);
#X text 183 329 Behringer FCB 1010: programs on higher banks;
#X obj 87 329 pgmin;
#X obj 87 354 - 1;
#X obj 87 379 div 5;
#X floatatom 87 430 5 0 0 0 - - -;
#X msg 185 384 \; upper mute 0 \; lower mute 0 \; lead mute 0;
#X msg 205 460 \; upper mute 0 \; lower mute 0 \; lead mute 1;
#X msg 305 384 \; upper mute 1 \; lower mute 0 \; lead mute 0;
#X msg 324 461 \; upper mute 1 \; lower mute 0 \; lead mute 1;
#X obj 87 404 mod 5;
#X obj 185 355 sel 0 1 2 3 4;
#X msg 426 384 \; upper mute 1 \; lower mute 1 \; lead mute 1;
#X connect 1 0 2 0;
#X connect 2 1 3 0;
#X connect 3 0 7 0;
#X connect 4 0 5 0;
#X connect 5 0 6 0;
#X connect 8 0 9 0;
#X connect 9 0 10 0;
#X connect 9 1 10 0;
#X connect 9 2 11 0;
#X connect 10 0 7 0;
#X connect 11 0 7 0;
#X connect 13 0 7 0;
#X connect 14 0 15 0;
#X connect 18 0 19 0;
#X connect 20 0 21 0;
#X connect 22 0 23 0;
#X connect 24 0 18 0;
#X connect 25 0 20 0;
#X connect 26 0 22 0;
#X connect 28 0 13 0;
#X connect 29 0 14 0;
#X connect 30 0 31 0;
#X connect 32 0 30 0;
#X connect 36 0 38 0;
#X connect 37 0 36 0;
#X connect 38 0 39 0;
#X connect 39 1 42 0;
#X connect 40 0 39 0;
#X connect 41 0 40 0;
#X connect 44 0 45 0;
#X connect 46 0 44 0;
#X connect 49 0 50 0;
#X connect 50 0 51 0;
#X connect 51 0 57 0;
#X connect 52 0 58 0;
#X connect 57 0 52 0;
#X connect 58 0 53 0;
#X connect 58 1 54 0;
#X connect 58 2 55 0;
#X connect 58 3 56 0;
#X connect 58 4 59 0;
#X restore 605 100 pd midi-in;
#X connect 0 0 41 0;
#X connect 1 0 41 0;
#X connect 2 0 41 0;
#X connect 3 0 41 0;
#X connect 4 0 0 0;
#X connect 4 0 75 0;
#X connect 5 0 1 0;
#X connect 5 0 76 0;
#X connect 6 0 39 0;
#X connect 7 0 3 0;
#X connect 8 0 9 0;
#X connect 8 1 9 1;
#X connect 9 0 10 0;
#X connect 10 0 11 0;
#X connect 10 1 11 1;
#X connect 11 0 49 0;
#X connect 12 0 13 0;
#X connect 14 0 16 0;
#X connect 15 0 17 0;
#X connect 18 0 19 0;
#X connect 19 0 5 0;
#X connect 19 1 4 0;
#X connect 20 0 24 0;
#X connect 21 0 24 0;
#X connect 22 0 25 0;
#X connect 23 0 25 0;
#X connect 26 0 24 0;
#X connect 27 0 25 0;
#X connect 30 0 40 0;
#X connect 31 0 42 0;
#X connect 32 0 31 0;
#X connect 32 0 77 0;
#X connect 33 0 32 0;
#X connect 35 0 34 0;
#X connect 36 0 35 1;
#X connect 37 0 6 0;
#X connect 38 0 37 0;
#X connect 39 0 106 0;
#X connect 39 1 2 0;
#X connect 44 0 93 0;
#X connect 48 0 20 0;
#X connect 48 1 21 0;
#X connect 48 2 26 0;
#X connect 48 3 22 0;
#X connect 48 4 23 0;
#X connect 48 5 27 0;
#X connect 48 6 50 0;
#X connect 48 7 51 0;
#X connect 48 8 52 0;
#X connect 49 0 78 0;
#X connect 49 1 82 0;
#X connect 49 2 85 0;
#X connect 49 3 81 0;
#X connect 49 4 18 0;
#X connect 49 5 7 0;
#X connect 49 6 32 0;
#X connect 49 7 48 0;
#X connect 50 0 53 0;
#X connect 51 0 53 0;
#X connect 52 0 53 0;
#X connect 54 0 35 0;
#X connect 54 0 44 0;
#X connect 55 0 56 0;
#X connect 56 0 57 0;
#X connect 56 1 59 0;
#X connect 56 2 60 0;
#X connect 57 0 58 0;
#X connect 57 0 88 0;
#X connect 57 1 97 0;
#X connect 58 0 67 0;
#X connect 59 0 61 0;
#X connect 59 0 89 0;
#X connect 59 1 97 1;
#X connect 60 0 62 0;
#X connect 60 0 90 0;
#X connect 60 1 97 2;
#X connect 61 0 67 0;
#X connect 62 0 67 0;
#X connect 63 0 65 0;
#X connect 64 0 63 1;
#X connect 67 0 66 0;
#X connect 67 1 63 0;
#X connect 68 0 72 0;
#X connect 69 0 72 0;
#X connect 70 0 72 0;
#X connect 72 0 71 0;
#X connect 72 1 63 0;
#X connect 73 0 72 0;
#X connect 74 0 72 0;
#X connect 75 0 67 0;
#X connect 76 0 67 0;
#X connect 77 0 67 0;
#X connect 78 0 79 0;
#X connect 79 0 80 0;
#X connect 79 1 80 1;
#X connect 80 0 78 1;
#X connect 80 0 12 0;
#X connect 82 0 83 0;
#X connect 83 0 84 0;
#X connect 83 1 84 1;
#X connect 84 0 82 1;
#X connect 84 0 14 0;
#X connect 85 0 86 0;
#X connect 86 0 87 0;
#X connect 86 1 87 1;
#X connect 87 0 85 1;
#X connect 87 0 15 0;
#X connect 88 0 78 1;
#X connect 89 0 82 1;
#X connect 90 0 85 1;
#X connect 91 0 105 0;
#X connect 92 0 77 0;
#X connect 93 0 30 0;
#X connect 93 1 12 0;
#X connect 93 2 14 0;
#X connect 93 3 15 0;
#X connect 93 4 19 0;
#X connect 93 5 96 0;
#X connect 93 6 38 0;
#X connect 93 7 7 0;
#X connect 93 8 32 0;
#X connect 93 9 94 0;
#X connect 93 10 103 0;
#X connect 94 0 95 0;
#X connect 96 1 81 0;
#X connect 97 0 100 0;
#X connect 98 0 99 0;
#X connect 100 0 68 0;
#X connect 100 1 69 0;
#X connect 100 2 70 0;
#X connect 100 3 73 0;
#X connect 100 4 74 0;
#X connect 100 5 101 0;
#X connect 101 0 72 0;
#X connect 104 0 63 0;
#X connect 105 0 99 0;
#X connect 105 1 76 0;
#X connect 105 2 92 0;
#X connect 107 0 111 0;
#X connect 108 0 77 0;
#X connect 109 0 113 0;
#X connect 110 0 113 0;
#X connect 110 1 76 0;
#X connect 110 2 108 0;
#X connect 111 0 109 0;
#X connect 111 1 98 0;
#X connect 112 0 110 0;
#X connect 114 0 18 0;
#X connect 114 1 32 0;
#X connect 114 2 7 0;
#X connect 114 3 12 0;
#X connect 114 4 14 0;
#X connect 114 5 15 0;
#X connect 114 6 81 0;
#X coords 0 -1 1 1 240 40 1 0 0;
#X restore 462 10 pd controls;
#X text 203 388 F8: Switch presets;
#X text 203 405 F9: Start/Stop;
#X text 363 388 F5: Hold;
#X text 203 371 F1 \, F2 \, F3: Mute;
#X text 362 370 F4: Metronome;
#X obj 9 130 Raptor5 lower;
#X text 322 405 Keypad: Harm. sweep;
#X obj 9 369 cnv 15 150 25 empty empty Raptor5_Demo 20 12 0 14 -233017
-66577 0;
#X msg 475 300 disconnect;
#X obj 475 325 oscbrowser 8000;
#X msg 475 280 connect 255.255.255.255 9000;
#X obj 12 401 raptor-preset;
#X obj 9 10 Raptor5 upper;
#X obj 9 250 Raptor5 lead;
#X connect 10 0 11 0;
#X connect 12 0 11 0;
