#N canvas 276 138 641 705 12;
#X msg 118 280 \; upper load_preset presets/arp.raptor \; lower load_preset
presets/bass.raptor \; lead load_preset presets/piano.raptor;
#X obj 118 253 sel 0 1 2 3 4;
#X obj 118 73 hradio 15 1 0 5 reinit preset-no empty 0 -8 0 10 -191407
-1 -1 0;
#X msg 118 517 \; upper load_preset presets/arp.raptor \; lower load_preset
presets/bass.raptor \; lead load_preset presets/vibes.raptor;
#X msg 118 359 \; upper load_preset presets/arp.raptor \; lower load_preset
presets/bass.raptor \; lead load_preset presets/shred.raptor;
#X msg 118 438 \; upper load_preset presets/arp.raptor \; lower load_preset
presets/bass.raptor \; lead load_preset presets/shred2.raptor;
#X msg 118 596 \; upper load_preset presets/arp.raptor \; lower load_preset
presets/bass.raptor \; lead load_preset presets/wave.raptor;
#X symbolatom 12 90 8 0 0 1 - - -, f 8;
#X obj 13 178 hsl 64 15 40 240 0 0 empty empty empty -2 -8 0 10 -262144
-1 -1 1260 1;
#X floatatom 88 175 5 0 0 1 - - -, f 5;
#X obj 247 45 loadbang;
#X obj 13 226 / 10;
#X obj 13 251 int;
#X obj 13 276 * 10;
#X text 126 90 Meter;
#X text 126 174 Tempo;
#X obj 12 142 hradio 15 0 0 12 empty empty empty 0 -8 0 10 -64657 -1
-1 2;
#X obj 132 111 hradio 15 0 0 4 empty empty empty 0 -8 0 10 -258965
-1 -1 1;
#X text 134 123 2;
#X text 149 123 4;
#X text 165 123 8;
#X text 177 123 16;
#X obj 623 75 + 2;
#X obj 13 301 change;
#X obj 676 75 + 1;
#X obj 676 100 swap 2;
#X obj 676 125 pow;
#X floatatom 676 150 5 0 0 0 - - -, f 5;
#X floatatom 623 150 5 0 0 0 - - -, f 5;
#X obj 12 111 hradio 15 0 0 7 empty empty empty 0 -8 0 10 -262144 -1
-1 0;
#X obj 565 76 + 1;
#X floatatom 565 101 5 0 0 0 - - -, f 5;
#X obj 176 178 bng 15 250 50 0 empty empty empty 17 7 0 10 -258965
-1 -1;
#X text 13 156 2;
#X text 28 156 3;
#X text 44 156 4;
#X text 59 156 5;
#X text 75 156 6;
#X text 90 156 7;
#X text 106 156 8;
#X text 121 156 9;
#X text 131 156 10;
#X text 147 156 11;
#X text 162 156 12;
#X text 177 156 13;
#X msg 399 280 \; allparts tempo \$1;
#X msg 399 357 \; allparts meter \$1;
#X msg 399 434 \; allparts init_preset;
#X obj 807 85 r raptor-meter;
#X obj 807 110 symbol;
#X obj 807 165 splitmeter;
#X obj 807 190 unpack f f f;
#X obj 807 215 change;
#X obj 858 215 change;
#X obj 912 215 change;
#X msg 705 454 0;
#X msg 743 454 1;
#X obj 807 240 - 2;
#X obj 807 265 max 0;
#X obj 807 290 min 12;
#X obj 858 240 log;
#X obj 858 265 /;
#X obj 919 136 loadbang;
#X msg 919 161 2;
#X obj 919 186 log;
#X obj 858 315 int;
#X obj 858 340 - 1;
#X obj 858 365 max 0;
#X obj 858 390 min 3;
#X obj 912 240 - 1;
#X obj 912 265 max 0;
#X obj 912 290 min 6;
#X obj 458 487 r raptor-tempo;
#X obj 458 512 t f f;
#X msg 490 537 set \$1;
#X obj 807 135 t b a s b;
#X obj 459 576 r raptor-div-set;
#X msg 303 105 1;
#X msg 265 105 2;
#X obj 617 477 spigot;
#X obj 247 70 t b b b b b;
#X msg 400 105 set 4/4;
#X msg 341 105 set 80;
#X obj 459 610 r raptor-tempo-set;
#X obj 459 642 s raptor-tempo-get;
#X msg 404 644 80;
#X obj 118 229 t f b;
#X obj 450 407 tgl 15 0 empty raptor-shift empty 17 7 0 10 -262144
-1 -1 1 1;
#X obj 399 404 spigot;
#X text 13 123 1;
#X text 28 123 2;
#X text 44 123 3;
#X text 59 123 4;
#X text 75 123 5;
#X text 90 123 6;
#X text 106 123 7;
#X obj 858 290 + 0.5;
#X floatatom 697 342 5 0 0 0 - - -, f 5;
#X floatatom 617 342 5 0 0 0 - - -, f 5;
#X floatatom 657 342 5 0 0 0 - - -, f 5;
#X obj 617 366 pack f f f;
#X obj 617 401 mkmeter;
#X obj 617 426 symbol;
#X symbolatom 617 451 10 0 0 0 - - -, f 10;
#X obj 616 205 f;
#X obj 623 174 t b f;
#X obj 676 174 t b f;
#X obj 616 232 pack f f f;
#X msg 617 262 \$2 \$3 \$1;
#X obj 617 287 mktuplet;
#X obj 617 312 unpack f f f;
#X obj 450 154 s raptor-div-get;
#X obj 450 179 s raptor-div;
#X connect 1 0 0 0;
#X connect 1 1 4 0;
#X connect 1 2 5 0;
#X connect 1 3 3 0;
#X connect 1 4 6 0;
#X connect 2 0 86 0;
#X connect 7 0 46 0;
#X connect 8 0 11 0;
#X connect 9 0 45 0;
#X connect 9 0 84 0;
#X connect 10 0 80 0;
#X connect 11 0 12 0;
#X connect 12 0 13 0;
#X connect 13 0 23 0;
#X connect 16 0 22 0;
#X connect 17 0 24 0;
#X connect 22 0 28 0;
#X connect 23 0 9 0;
#X connect 24 0 25 0;
#X connect 25 0 26 0;
#X connect 25 1 26 1;
#X connect 26 0 27 0;
#X connect 27 0 106 0;
#X connect 28 0 105 0;
#X connect 29 0 30 0;
#X connect 30 0 31 0;
#X connect 31 0 104 0;
#X connect 31 0 111 0;
#X connect 31 0 112 0;
#X connect 32 0 47 0;
#X connect 48 0 49 0;
#X connect 49 0 75 0;
#X connect 50 0 51 0;
#X connect 51 0 52 0;
#X connect 51 1 53 0;
#X connect 51 2 54 0;
#X connect 52 0 57 0;
#X connect 53 0 60 0;
#X connect 54 0 69 0;
#X connect 55 0 79 1;
#X connect 56 0 79 1;
#X connect 57 0 58 0;
#X connect 58 0 59 0;
#X connect 59 0 16 0;
#X connect 60 0 61 0;
#X connect 61 0 96 0;
#X connect 62 0 63 0;
#X connect 63 0 64 0;
#X connect 64 0 61 1;
#X connect 65 0 66 0;
#X connect 66 0 67 0;
#X connect 67 0 68 0;
#X connect 68 0 17 0;
#X connect 69 0 70 0;
#X connect 70 0 71 0;
#X connect 71 0 29 0;
#X connect 72 0 73 0;
#X connect 73 0 9 0;
#X connect 73 0 84 0;
#X connect 73 1 74 0;
#X connect 74 0 8 0;
#X connect 75 0 56 0;
#X connect 75 1 7 0;
#X connect 75 2 50 0;
#X connect 75 3 55 0;
#X connect 76 0 29 0;
#X connect 77 0 17 0;
#X connect 78 0 16 0;
#X connect 79 0 7 0;
#X connect 80 0 56 0;
#X connect 80 1 78 0;
#X connect 80 2 77 0;
#X connect 80 3 82 0;
#X connect 80 3 85 0;
#X connect 80 4 81 0;
#X connect 81 0 7 0;
#X connect 82 0 8 0;
#X connect 82 0 9 0;
#X connect 83 0 8 0;
#X connect 85 0 84 0;
#X connect 86 0 1 0;
#X connect 86 1 88 0;
#X connect 87 0 88 1;
#X connect 88 0 47 0;
#X connect 96 0 65 0;
#X connect 97 0 100 2;
#X connect 98 0 100 0;
#X connect 99 0 100 1;
#X connect 100 0 101 0;
#X connect 101 0 102 0;
#X connect 102 0 103 0;
#X connect 103 0 79 0;
#X connect 104 0 107 0;
#X connect 105 0 104 0;
#X connect 105 1 107 1;
#X connect 106 0 104 0;
#X connect 106 1 107 2;
#X connect 107 0 108 0;
#X connect 108 0 109 0;
#X connect 109 0 110 0;
#X connect 110 0 98 0;
#X connect 110 1 99 0;
#X connect 110 2 97 0;
#X coords 0 -1 1 1 188 126 1 8 71;
