#N canvas 387 127 709 464 12;
#N canvas 426 159 740 370 harm-sweep 0;
#X obj 11 65 nbx 5 14 0 1 0 0 min-harm min-harm from 0 -8 0 12 -262144
-1 -1 0.04 256 0;
#X obj 11 98 nbx 5 14 0 1 0 0 max-harm max-harm to 0 -8 0 12 -262144
-1 -1 0.12 256 0;
#X obj 93 66 nbx 5 14 -1 1 0 0 min-pref min-pref from 0 -8 0 12 -262144
-1 -1 -0.8 256 0;
#X obj 93 99 nbx 5 14 -1 1 0 0 max-pref max-pref to 0 -8 0 12 -262144
-1 -1 0.8 256 0;
#X obj 10 130 nbx 5 14 0 1e+37 0 0 harm-time harm-time sweep-time 0
-8 0 12 -262144 -1 -1 10 256 0;
#X obj 92 130 nbx 5 14 0 1e+37 0 0 pref-time pref-time sweep-time 0
-8 0 12 -262144 -1 -1 10 256 0;
#X obj 9 165 vradio 15 1 0 3 harm-sweep harm-sweep harm-sweep 0 -8
0 12 -262144 -1 -1 2;
#X text 30 195 stop;
#X text 31 163 up;
#X text 30 180 down;
#X obj 93 166 vradio 15 1 0 3 pref-sweep pref-sweep pref-sweep 0 -8
0 12 -262144 -1 -1 2;
#X text 117 195 stop;
#X text 118 163 up;
#X text 117 180 down;
#X floatatom 399 238 5 0 0 0 - - -, f 5;
#X msg 399 262 min-harm \$1;
#X floatatom 577 238 5 0 0 0 - - -, f 5;
#X msg 577 262 pref \$1;
#X msg 399 173 stop;
#X msg 577 175 stop;
#X obj 448 59 r min-harm;
#X obj 423 38 r harm-time;
#N canvas 139 174 450 300 make-msg 0;
#X obj 101 18 inlet;
#X obj 152 19 inlet;
#X obj 85 129 f;
#X obj 136 131 f;
#X obj 20 17 inlet;
#X obj 269 18 inlet;
#X obj 253 130 f;
#X msg 20 93 stop;
#X obj 20 210 outlet;
#X obj 85 86 t b b;
#X obj 201 85 t b b;
#X obj 85 162 pack f f;
#X obj 201 163 pack f f;
#X obj 201 130 f;
#X obj 101 46 * 1000;
#X obj 20 47 sel 2 1 0;
#X connect 0 0 14 0;
#X connect 1 0 3 1;
#X connect 2 0 11 0;
#X connect 3 0 11 1;
#X connect 4 0 15 0;
#X connect 5 0 6 1;
#X connect 6 0 12 1;
#X connect 7 0 8 0;
#X connect 9 0 2 0;
#X connect 9 1 3 0;
#X connect 10 0 13 0;
#X connect 10 1 6 0;
#X connect 11 0 8 0;
#X connect 12 0 8 0;
#X connect 13 0 12 0;
#X connect 14 0 2 1;
#X connect 14 0 13 1;
#X connect 15 0 7 0;
#X connect 15 1 9 0;
#X connect 15 2 10 0;
#X restore 399 103 pd make-msg;
#X obj 472 81 r max-harm;
#X obj 399 14 r harm-sweep;
#X msg 466 174 \$2 \$1;
#X obj 399 133 route stop;
#N canvas 139 174 450 300 make-msg 0;
#X obj 101 18 inlet;
#X obj 152 19 inlet;
#X obj 85 129 f;
#X obj 136 131 f;
#X obj 20 17 inlet;
#X obj 269 18 inlet;
#X obj 253 130 f;
#X msg 20 93 stop;
#X obj 20 210 outlet;
#X obj 85 86 t b b;
#X obj 201 85 t b b;
#X obj 85 162 pack f f;
#X obj 201 163 pack f f;
#X obj 201 130 f;
#X obj 101 46 * 1000;
#X obj 20 47 sel 2 1 0;
#X connect 0 0 14 0;
#X connect 1 0 3 1;
#X connect 2 0 11 0;
#X connect 3 0 11 1;
#X connect 4 0 15 0;
#X connect 5 0 6 1;
#X connect 6 0 12 1;
#X connect 7 0 8 0;
#X connect 9 0 2 0;
#X connect 9 1 3 0;
#X connect 10 0 13 0;
#X connect 10 1 6 0;
#X connect 11 0 8 0;
#X connect 12 0 8 0;
#X connect 13 0 12 0;
#X connect 14 0 2 1;
#X connect 14 0 13 1;
#X connect 15 0 7 0;
#X connect 15 1 9 0;
#X connect 15 2 10 0;
#X restore 577 102 pd make-msg;
#X msg 644 173 \$2 \$1;
#X obj 577 132 route stop;
#X obj 577 13 r pref-sweep;
#X obj 601 37 r pref-time;
#X obj 626 58 r min-pref;
#X obj 651 80 r max-pref;
#X obj 262 15 loadbang;
#X obj 172 166 vradio 15 1 0 3 both-sweep both-sweep both 0 -8 0 12
-262144 -1 -1 2;
#X text 196 195 stop;
#X text 197 163 up;
#X text 196 180 down;
#X obj 11 243 r both-sweep;
#X obj 11 35 nbx 5 14 0 1 0 0 empty harm-display min-harm 0 -8 0 12
-262144 -1 -1 0.12 256 0;
#X obj 93 36 nbx 5 14 -1 1 0 0 empty pref-display pref 0 -8 0 12 -262144
-1 -1 0.8 256 0;
#X obj 286 263 s harm-display;
#X obj 642 262 s pref-display;
#X obj 11 268 s harm-sweep;
#X obj 11 293 s pref-sweep;
#X obj 399 211 line 0.12;
#X obj 577 211 line 0.8;
#X msg 262 40 \; harm-display 0.12 \; pref-display 0.8 \; min-harm
0.04 \; max-harm 0.12 \; harm-time 10 \; min-pref -0.8 \; max-pref
0.8 \; pref-time 10 \; harm-sweep 2 \; pref-sweep 2 \; both-sweep 2
;
#X obj 399 290 s upper;
#X obj 577 290 s upper;
#X obj 139 234 ctlin 1;
#X floatatom 139 261 5 0 0 0 - - -, f 5;
#X obj 139 284 / 127;
#X obj 139 309 expr $f1*($f3-$f2)+$f2;
#X floatatom 139 337 5 0 0 0 - - -, f 5;
#X obj 204 262 r min-harm;
#X obj 228 284 r max-harm;
#X connect 14 0 15 0;
#X connect 14 0 42 0;
#X connect 15 0 49 0;
#X connect 16 0 17 0;
#X connect 16 0 43 0;
#X connect 17 0 50 0;
#X connect 18 0 46 0;
#X connect 19 0 47 0;
#X connect 20 0 22 2;
#X connect 21 0 22 1;
#X connect 22 0 26 0;
#X connect 23 0 22 3;
#X connect 24 0 22 0;
#X connect 25 0 46 0;
#X connect 26 0 18 0;
#X connect 26 1 25 0;
#X connect 27 0 29 0;
#X connect 28 0 47 0;
#X connect 29 0 19 0;
#X connect 29 1 28 0;
#X connect 30 0 27 0;
#X connect 31 0 27 1;
#X connect 32 0 27 2;
#X connect 33 0 27 3;
#X connect 34 0 48 0;
#X connect 39 0 44 0;
#X connect 39 0 45 0;
#X connect 46 0 14 0;
#X connect 47 0 16 0;
#X connect 51 0 52 0;
#X connect 52 0 53 0;
#X connect 53 0 54 0;
#X connect 54 0 55 0;
#X connect 55 0 42 0;
#X connect 55 0 15 0;
#X connect 56 0 54 1;
#X connect 57 0 54 2;
#X coords 0 -1 1 1 240 220 1 0 0;
#X restore 462 55 pd harm-sweep;
#N canvas 68 17 922 687 controls 0;
#X msg 7 51 start;
#X msg 69 51 stop;
#X msg 121 51 reset;
#X obj 579 74 s upper;
#X obj 579 96 s lower;
#X obj 579 117 s lead;
#X msg 186 51 hold \$1;
#X obj 7 18 bng 15 250 50 0 empty empty Start 17 7 0 12 -262144 -1
-1;
#X obj 69 18 bng 15 250 50 0 empty empty Stop 17 7 0 12 -262144 -1
-1;
#X obj 126 18 bng 15 250 50 0 empty empty Reset 17 7 0 12 -262144 -1
-1;
#X obj 186 18 tgl 15 0 empty empty Hold 17 7 0 12 -262144 -1 -1 0 1
;
#X obj 203 93 keyname;
#X obj 203 121 list prepend;
#X obj 203 150 unpack s f;
#X obj 203 177 spigot;
#X msg 203 393 mute \$1;
#X obj 203 416 s upper;
#X msg 273 393 mute \$1;
#X msg 343 393 mute \$1;
#X obj 273 416 s lower;
#X obj 343 416 s lead;
#X obj 485 61 tgl 15 0 empty empty empty 17 7 0 10 -262144 -1 -1 0
1;
#X obj 485 104 sel 0 1;
#X msg 471 232 0;
#X msg 515 232 1;
#X msg 605 232 0;
#X msg 650 232 1;
#X obj 471 259 s harm-sweep;
#X obj 605 259 s pref-sweep;
#X msg 560 232 2;
#X msg 694 232 2;
#X text 18 548 OSC interface;
#X obj 401 689 bng 15 250 50 0 empty empty empty 17 7 0 10 -262144
-1 -1;
#X text 19 564 needs mrpeach;
#X obj 145 677 list;
#X msg 775 587 min-harm \$1;
#X msg 869 587 harm-bias \$1;
#X msg 973 587 pref \$1;
#X msg 1049 587 pref-bias \$1;
#X obj 902 629 s upper;
#X obj 768 629 s harm-display;
#X obj 970 630 s pref-display;
#X obj 768 538 routeOSC /Harmonicity /HarmBias /Preference /PrefBias
/Density;
#X msg 1157 588 max-notes \$1;
#X msg 555 705 ticks \$1;
#X obj 555 676 tgl 15 0 empty empty Metro 17 7 0 12 -262144 -1 -1 1
1;
#X obj 644 633 loadbang;
#X obj 1136 656 spigot;
#X obj 1175 624 tgl 15 0 empty empty empty 17 7 0 10 -262144 -1 -1
0 1;
#X obj 645 580 print OSC;
#X obj 645 546 spigot;
#X obj 684 514 tgl 15 0 empty empty empty 17 7 0 10 -262144 -1 -1 0
1;
#X obj 452 689 bng 15 250 50 0 empty empty empty 17 7 0 10 -262144
-1 -1;
#X obj 401 663 sel 1;
#X obj 452 663 sel 1;
#X obj 313 32 t b b;
#X obj 579 43 r allparts;
#X obj 145 702 s allparts;
#X obj 69 119 s allparts;
#X obj 555 733 s allparts;
#X text 263 7 reset: reload preset;
#X obj 313 57 s reload;
#X obj 145 557 pure f with f (x@_ y) = () if last (split "/" x) ===
"z" \; f x = x end;
#X text 313 574 get rid of touch messages;
#X text 668 35 Remote control:;
#X obj 672 62 pure-remote;
#X obj 471 184 sel KP_Home KP_End KP_Left KP_Up KP_Down KP_Begin KP_Prior
KP_Next KP_Right;
#X obj 203 211 sel F1 F2 F3 F8 F9 F5 F4;
#X msg 739 231 0;
#X msg 784 231 1;
#X msg 829 231 2;
#X obj 739 258 s both-sweep;
#X obj 1136 690 print OSC?;
#X obj 145 521 r osc-input;
#X obj 485 304 r params;
#X obj 485 329 route upper lower lead;
#X obj 485 354 route mute;
#X msg 485 379 /Mute1 \$1;
#X obj 571 354 route mute;
#X obj 653 354 route mute;
#X msg 571 379 /Mute2 \$1;
#X msg 653 379 /Mute3 \$1;
#X obj 754 400 spigot;
#X obj 793 368 tgl 15 0 empty empty empty 17 7 0 10 -262144 -1 -1 0
1;
#X obj 754 434 print OSC-Out;
#X obj 565 441 s osc-output;
#X obj 565 412 t a a;
#X obj 849 313 route min_harm harm_bias pref pref_bias max_notes;
#X msg 849 338 /Harmonicity \$1;
#X msg 917 363 /HarmBias \$1;
#X msg 985 339 /Preference \$1;
#X obj 997 430 s osc-output;
#X obj 997 401 t a a;
#X msg 1053 363 /PrefBias \$1;
#X msg 1121 339 /Density \$1;
#X msg 477 412 /Start 1;
#X msg 477 442 /Start 0;
#X msg 478 473 /Ticks \$1;
#X obj 203 315 f;
#X obj 203 340 swap 1;
#X obj 203 365 -;
#N canvas 582 193 561 363 presets 0;
#X msg 346 17 \; upper load_preset presets/arp.raptor \; lower load_preset
presets/bass.raptor \; lead load_preset presets/piano.raptor;
#X msg 346 90 \; upper load_preset presets/3/arp.raptor \; lower load_preset
presets/3/bass.raptor \; lead load_preset presets/3/vibes.raptor;
#X obj 216 -36 inlet;
#X obj 216 -4 f;
#X obj 144 -5 r reload;
#X obj 216 21 + 1;
#X floatatom 216 71 5 0 0 0 - - -, f 5;
#X msg 346 164 \; upper load_preset presets/3/arp.raptor \; lower load_preset
presets/3/bass.raptor \; lead load_preset presets/3/guitar.raptor;
#X obj 346 -31 sel 0 1 2 3;
#X msg 346 235 \; upper load_preset presets/3/arp.raptor \; lower load_preset
presets/3/bass.raptor \; lead load_preset presets/3/shred.raptor;
#X obj 216 46 mod 4;
#X connect 2 0 3 0;
#X connect 3 0 5 0;
#X connect 4 0 6 0;
#X connect 5 0 10 0;
#X connect 6 0 3 1;
#X connect 6 0 8 0;
#X connect 8 0 0 0;
#X connect 8 1 1 0;
#X connect 8 2 7 0;
#X connect 8 3 9 0;
#X connect 10 0 6 0;
#X restore 51 277 pd presets;
#X obj 273 316 f;
#X obj 273 341 swap 1;
#X obj 273 366 -;
#X obj 343 317 f;
#X obj 343 342 swap 1;
#X obj 343 367 -;
#X obj 221 286 tgl 15 0 empty empty empty 17 7 0 10 -262144 -1 -1 0
1;
#X obj 291 285 tgl 15 0 empty empty empty 17 7 0 10 -262144 -1 -1 0
1;
#X obj 361 285 tgl 15 0 empty empty empty 17 7 0 10 -262144 -1 -1 1
1;
#X obj 40 365 r osc-ready;
#X obj 40 390 t b b b;
#X msg 86 423 1;
#X obj 40 454 s reload;
#X obj 145 617 routeOSC /Notes /Mute1 /Mute2 /Mute3 /Start /Preset
/Reset /Sustain /Ticks /Presets;
#N canvas 433 184 450 300 choose 0;
#X obj 26 11 inlet;
#X obj 26 36 routeOSC /1 /2 /3 /4 /5;
#X obj 26 61 routeOSC /1;
#X obj 26 86 sel 1;
#X obj 26 111 bng 15 250 50 0 empty empty empty 17 7 0 10 -262144 -1
-1;
#X obj 26 191 outlet;
#X obj 161 62 routeOSC /1;
#X obj 161 87 sel 1;
#X obj 161 112 bng 15 250 50 0 empty empty empty 17 7 0 10 -262144
-1 -1;
#X obj 73 86 routeOSC /1;
#X obj 73 111 sel 1;
#X obj 73 136 bng 15 250 50 0 empty empty empty 17 7 0 10 -262144 -1
-1;
#X obj 210 86 routeOSC /1;
#X obj 210 111 sel 1;
#X obj 210 136 bng 15 250 50 0 empty empty empty 17 7 0 10 -262144
-1 -1;
#X obj 297 67 routeOSC /1;
#X obj 297 92 sel 1;
#X obj 297 117 bng 15 250 50 0 empty empty empty 17 7 0 10 -262144
-1 -1;
#X msg 26 131 0;
#X msg 73 156 1;
#X msg 161 132 2;
#X msg 210 156 3;
#X msg 297 137 4;
#X connect 0 0 1 0;
#X connect 1 0 2 0;
#X connect 1 1 9 0;
#X connect 1 2 6 0;
#X connect 1 3 12 0;
#X connect 1 4 15 0;
#X connect 2 0 3 0;
#X connect 3 0 4 0;
#X connect 4 0 18 0;
#X connect 6 0 7 0;
#X connect 7 0 8 0;
#X connect 8 0 20 0;
#X connect 9 0 10 0;
#X connect 10 0 11 0;
#X connect 11 0 19 0;
#X connect 12 0 13 0;
#X connect 13 0 14 0;
#X connect 14 0 21 0;
#X connect 15 0 16 0;
#X connect 16 0 17 0;
#X connect 17 0 22 0;
#X connect 18 0 5 0;
#X connect 19 0 5 0;
#X connect 20 0 5 0;
#X connect 21 0 5 0;
#X connect 22 0 5 0;
#X restore 663 675 pd choose;
#X obj 663 708 s reload;
#X connect 0 0 58 0;
#X connect 1 0 58 0;
#X connect 2 0 58 0;
#X connect 6 0 58 0;
#X connect 7 0 0 0;
#X connect 7 0 95 0;
#X connect 8 0 1 0;
#X connect 8 0 96 0;
#X connect 9 0 55 0;
#X connect 10 0 6 0;
#X connect 11 0 12 0;
#X connect 11 1 12 1;
#X connect 12 0 13 0;
#X connect 13 0 14 0;
#X connect 13 1 14 1;
#X connect 14 0 67 0;
#X connect 15 0 16 0;
#X connect 17 0 19 0;
#X connect 18 0 20 0;
#X connect 21 0 22 0;
#X connect 22 0 8 0;
#X connect 22 1 7 0;
#X connect 23 0 27 0;
#X connect 24 0 27 0;
#X connect 25 0 28 0;
#X connect 26 0 28 0;
#X connect 29 0 27 0;
#X connect 30 0 28 0;
#X connect 32 0 101 0;
#X connect 34 0 57 0;
#X connect 35 0 39 0;
#X connect 36 0 39 0;
#X connect 37 0 39 0;
#X connect 38 0 39 0;
#X connect 42 0 35 0;
#X connect 42 0 40 0;
#X connect 42 1 36 0;
#X connect 42 2 37 0;
#X connect 42 2 41 0;
#X connect 42 3 38 0;
#X connect 42 4 43 0;
#X connect 42 5 47 0;
#X connect 43 0 39 0;
#X connect 44 0 59 0;
#X connect 45 0 44 0;
#X connect 45 0 97 0;
#X connect 46 0 45 0;
#X connect 47 0 72 0;
#X connect 48 0 47 1;
#X connect 50 0 49 0;
#X connect 51 0 50 1;
#X connect 52 0 9 0;
#X connect 53 0 32 0;
#X connect 54 0 52 0;
#X connect 55 0 61 0;
#X connect 55 1 2 0;
#X connect 56 0 3 0;
#X connect 56 0 4 0;
#X connect 56 0 5 0;
#X connect 62 0 115 0;
#X connect 66 0 23 0;
#X connect 66 1 24 0;
#X connect 66 2 29 0;
#X connect 66 3 25 0;
#X connect 66 4 26 0;
#X connect 66 5 30 0;
#X connect 66 6 68 0;
#X connect 66 7 69 0;
#X connect 66 8 70 0;
#X connect 67 0 98 0;
#X connect 67 1 102 0;
#X connect 67 2 105 0;
#X connect 67 3 101 0;
#X connect 67 4 21 0;
#X connect 67 5 10 0;
#X connect 67 6 45 0;
#X connect 67 7 66 0;
#X connect 68 0 71 0;
#X connect 69 0 71 0;
#X connect 70 0 71 0;
#X connect 73 0 50 0;
#X connect 73 0 62 0;
#X connect 74 0 75 0;
#X connect 75 0 76 0;
#X connect 75 1 78 0;
#X connect 75 2 79 0;
#X connect 76 0 77 0;
#X connect 76 0 108 0;
#X connect 76 1 87 0;
#X connect 77 0 86 0;
#X connect 78 0 80 0;
#X connect 78 0 109 0;
#X connect 79 0 81 0;
#X connect 79 0 110 0;
#X connect 80 0 86 0;
#X connect 81 0 86 0;
#X connect 82 0 84 0;
#X connect 83 0 82 1;
#X connect 86 0 85 0;
#X connect 86 1 82 0;
#X connect 87 0 88 0;
#X connect 87 1 89 0;
#X connect 87 2 90 0;
#X connect 87 3 93 0;
#X connect 87 4 94 0;
#X connect 88 0 92 0;
#X connect 89 0 92 0;
#X connect 90 0 92 0;
#X connect 92 0 91 0;
#X connect 92 1 82 0;
#X connect 93 0 92 0;
#X connect 94 0 92 0;
#X connect 95 0 86 0;
#X connect 96 0 86 0;
#X connect 97 0 86 0;
#X connect 98 0 99 0;
#X connect 99 0 100 0;
#X connect 99 1 100 1;
#X connect 100 0 98 1;
#X connect 100 0 15 0;
#X connect 102 0 103 0;
#X connect 103 0 104 0;
#X connect 103 1 104 1;
#X connect 104 0 102 1;
#X connect 104 0 17 0;
#X connect 105 0 106 0;
#X connect 106 0 107 0;
#X connect 106 1 107 1;
#X connect 107 0 105 1;
#X connect 107 0 18 0;
#X connect 108 0 98 1;
#X connect 109 0 102 1;
#X connect 110 0 105 1;
#X connect 111 0 112 0;
#X connect 112 0 114 0;
#X connect 112 1 96 0;
#X connect 112 2 113 0;
#X connect 113 0 97 0;
#X connect 115 0 34 0;
#X connect 115 1 15 0;
#X connect 115 2 17 0;
#X connect 115 3 18 0;
#X connect 115 4 22 0;
#X connect 115 5 53 0;
#X connect 115 6 54 0;
#X connect 115 7 10 0;
#X connect 115 8 45 0;
#X connect 115 9 116 0;
#X connect 115 10 42 0;
#X connect 116 0 117 0;
#X coords 0 -1 1 1 240 40 1 0 0;
#X restore 462 10 pd controls;
#X text 210 400 F8: Switch presets;
#X text 210 416 F9: Start/Stop;
#X text 363 400 F5: Hold;
#X text 210 383 F1 \, F2 \, F3: Mute;
#X text 362 382 F4: Metronome;
#X obj 9 10 Raptor5 upper;
#X obj 9 130 Raptor5 lower;
#X text 322 417 Keypad: Harm. sweep;
#X obj 12 397 cnv 15 192 28 empty empty Raptor5\ 3-Part\ Demo 11 12
1 18 -191407 -1 0;
#X obj 9 250 Raptor5 lead;
#X msg 481 300 disconnect;
#X obj 481 325 oscbrowser 8000;
#X msg 481 280 connect 255.255.255.255 9000;
#X obj 491 426 cnv 15 192 28 empty empty OSC\ Control\ Panel 15 12
1 18 -191407 -1 0;
#X connect 12 0 13 0;
#X connect 14 0 13 0;
