#N canvas 408 43 641 615 12;
#X msg 118 245 \; upper load_preset presets/3/arp.raptor \; lower load_preset
presets/3/bass.raptor \; lead load_preset presets/3/vibes.raptor;
#X msg 118 332 \; upper load_preset presets/3/arp.raptor \; lower load_preset
presets/3/bass.raptor \; lead load_preset presets/3/guitar.raptor;
#X msg 118 415 \; upper load_preset presets/3/arp.raptor \; lower load_preset
presets/3/bass.raptor \; lead load_preset presets/3/shred.raptor;
#X obj 118 104 sel 0 1 2 3 4;
#X msg 118 497 \; upper load_preset presets/3/arp.raptor \; lower load_preset
presets/3/bass.raptor \; lead load_preset presets/3/storm.raptor;
#X obj 118 73 hradio 15 1 0 5 reinit preset-no empty 0 -8 0 10 -191407
-1 -1 0;
#X msg 118 160 \; upper load_preset presets/3/arp.raptor \; lower load_preset
presets/3/bass.raptor \; lead load_preset presets/3/piano.raptor;
#X connect 3 0 6 0;
#X connect 3 1 0 0;
#X connect 3 2 1 0;
#X connect 3 3 2 0;
#X connect 3 4 4 0;
#X connect 5 0 3 0;
#X coords 0 -1 1 1 187 20 1 8 71;
