#N canvas 633 174 641 669 12;
#X msg 118 260 \; upper load_preset presets/arp.raptor \; lower load_preset
presets/bass.raptor \; lead load_preset presets/piano.raptor;
#X obj 118 204 sel 0 1 2 3 4;
#X obj 118 73 hradio 15 1 0 5 reinit preset-no empty 0 -8 0 10 -191407
-1 -1 0;
#X msg 118 497 \; upper load_preset presets/arp.raptor \; lower load_preset
presets/bass.raptor \; lead load_preset presets/vibes.raptor;
#X msg 118 339 \; upper load_preset presets/arp.raptor \; lower load_preset
presets/bass.raptor \; lead load_preset presets/shred.raptor;
#X msg 118 418 \; upper load_preset presets/arp.raptor \; lower load_preset
presets/bass.raptor \; lead load_preset presets/shred2.raptor;
#X msg 118 576 \; upper load_preset presets/arp.raptor \; lower load_preset
presets/bass.raptor \; lead load_preset presets/wave.raptor;
#X symbolatom 12 90 8 0 0 1 - raptor-meter -, f 8;
#X obj 13 169 hsl 64 15 40 240 0 0 empty raptor-tempo empty -2 -8 0
10 -262144 -1 -1 1260 1;
#X floatatom 88 166 5 0 0 1 - - -, f 5;
#X obj 247 45 loadbang;
#X msg 337 100 80;
#X obj 13 206 / 10;
#X obj 13 231 int;
#X obj 13 256 * 10;
#X msg 420 260 \; upper tempo \$1 \; lower tempo \$1 \; lead tempo
\$1;
#X msg 420 337 \; upper meter \$1 \; lower meter \$1 \; lead meter
\$1;
#X text 95 90 Meter;
#X text 128 165 Tempo;
#X obj 12 133 hradio 15 0 0 12 empty empty empty 0 -8 0 10 -64657 -1
-1 7;
#X msg 247 100 2;
#X obj 132 111 hradio 15 0 0 4 empty empty empty 0 -8 0 10 -258965
-1 -1 3;
#X obj 247 70 t b b b;
#X msg 277 100 1;
#X text 135 90 2;
#X text 150 90 4;
#X text 166 90 8;
#X text 178 90 16;
#X obj 552 183 + 2;
#X obj 13 281 change;
#X obj 605 183 + 1;
#X obj 605 208 swap 2;
#X obj 605 233 pow;
#X floatatom 605 258 5 0 0 0 - - -, f 5;
#X obj 552 385 mkmeter;
#X obj 552 410 symbol;
#X floatatom 552 258 5 0 0 0 - - -, f 5;
#X obj 552 435 s raptor-meter;
#X obj 12 111 hradio 15 0 0 7 empty empty empty 0 -8 0 10 -262144 -1
-1 0;
#X obj 565 76 + 1;
#X obj 605 282 * 1;
#X floatatom 565 101 5 0 0 0 - - -, f 5;
#X obj 176 169 bng 15 250 50 0 empty empty empty 17 7 0 10 -258965
-1 -1;
#X msg 420 414 \; upper init_preset \; lower init_preset \; lead init_preset
;
#X obj 552 360 pack f f f;
#X obj 605 307 t b f;
#X obj 565 125 t b f f;
#X text 13 147 2;
#X text 28 147 3;
#X text 44 147 4;
#X text 59 147 5;
#X text 75 147 6;
#X text 90 147 7;
#X text 106 147 8;
#X text 121 147 9;
#X text 131 147 10;
#X text 147 147 11;
#X text 162 147 12;
#X text 177 147 13;
#X connect 1 0 0 0;
#X connect 1 1 4 0;
#X connect 1 2 5 0;
#X connect 1 3 3 0;
#X connect 1 4 6 0;
#X connect 2 0 1 0;
#X connect 7 0 16 0;
#X connect 8 0 12 0;
#X connect 9 0 15 0;
#X connect 10 0 22 0;
#X connect 11 0 8 0;
#X connect 12 0 13 0;
#X connect 13 0 14 0;
#X connect 14 0 29 0;
#X connect 19 0 28 0;
#X connect 20 0 19 0;
#X connect 21 0 30 0;
#X connect 22 0 20 0;
#X connect 22 1 23 0;
#X connect 22 2 11 0;
#X connect 23 0 21 0;
#X connect 28 0 36 0;
#X connect 29 0 9 0;
#X connect 30 0 31 0;
#X connect 31 0 32 0;
#X connect 31 1 32 1;
#X connect 32 0 33 0;
#X connect 33 0 40 0;
#X connect 34 0 35 0;
#X connect 35 0 37 0;
#X connect 36 0 44 0;
#X connect 38 0 39 0;
#X connect 39 0 41 0;
#X connect 40 0 45 0;
#X connect 41 0 46 0;
#X connect 42 0 43 0;
#X connect 44 0 34 0;
#X connect 45 0 36 0;
#X connect 45 1 44 1;
#X connect 46 0 33 0;
#X connect 46 1 40 1;
#X connect 46 2 44 2;
#X coords 0 -1 1 1 189 118 1 8 71;
